solid OpenSCAD_Model
  facet normal 0.982287 0.187381 0
    outer loop
      vertex 3.96846 0.501332 6
      vertex 3.87433 0.994759 0
      vertex 3.87433 0.994759 6
    endloop
  endfacet
  facet normal 0.982287 0.187381 0
    outer loop
      vertex 3.87433 0.994759 0
      vertex 3.96846 0.501332 6
      vertex 3.96846 0.501332 0
    endloop
  endfacet
  facet normal 0 0 -1
    outer loop
      vertex 3.96846 -0.501332 0
      vertex 3.96846 0.501332 0
      vertex 4 0 0
    endloop
  endfacet
  facet normal 0 0 -1
    outer loop
      vertex 3.87433 -0.994759 0
      vertex 3.96846 0.501332 0
      vertex 3.96846 -0.501332 0
    endloop
  endfacet
  facet normal 0 0 -1
    outer loop
      vertex 3.87433 -0.994759 0
      vertex 3.87433 0.994759 0
      vertex 3.96846 0.501332 0
    endloop
  endfacet
  facet normal 0 0 -1
    outer loop
      vertex 3.71911 -1.4725 0
      vertex 3.87433 0.994759 0
      vertex 3.87433 -0.994759 0
    endloop
  endfacet
  facet normal 0 0 -1
    outer loop
      vertex 3.71911 -1.4725 0
      vertex 3.71911 1.4725 0
      vertex 3.87433 0.994759 0
    endloop
  endfacet
  facet normal 0 0 -1
    outer loop
      vertex 3.50523 -1.92701 0
      vertex 3.71911 1.4725 0
      vertex 3.71911 -1.4725 0
    endloop
  endfacet
  facet normal 0 0 -1
    outer loop
      vertex 3.50523 -1.92701 0
      vertex 3.50523 1.92701 0
      vertex 3.71911 1.4725 0
    endloop
  endfacet
  facet normal 0 0 -1
    outer loop
      vertex 3.23607 -2.35114 0
      vertex 3.50523 1.92701 0
      vertex 3.50523 -1.92701 0
    endloop
  endfacet
  facet normal 0 0 -1
    outer loop
      vertex 3.23607 -2.35114 0
      vertex 3.23607 2.35114 0
      vertex 3.50523 1.92701 0
    endloop
  endfacet
  facet normal 0 0 -1
    outer loop
      vertex 2.91587 -2.73819 0
      vertex 3.23607 2.35114 0
      vertex 3.23607 -2.35114 0
    endloop
  endfacet
  facet normal 0 0 -1
    outer loop
      vertex 2.91587 -2.73819 0
      vertex 2.91587 2.73819 0
      vertex 3.23607 2.35114 0
    endloop
  endfacet
  facet normal 0 0 -1
    outer loop
      vertex 2.5497 -3.08205 0
      vertex 2.91587 2.73819 0
      vertex 2.91587 -2.73819 0
    endloop
  endfacet
  facet normal 0 0 -1
    outer loop
      vertex 2.5497 -3.08205 0
      vertex 2.5497 3.08205 0
      vertex 2.91587 2.73819 0
    endloop
  endfacet
  facet normal 0 0 -1
    outer loop
      vertex 2.14331 -3.37731 0
      vertex 2.5497 3.08205 0
      vertex 2.5497 -3.08205 0
    endloop
  endfacet
  facet normal 0 0 -1
    outer loop
      vertex 2.14331 -3.37731 0
      vertex 2.14331 3.37731 0
      vertex 2.5497 3.08205 0
    endloop
  endfacet
  facet normal 0 0 -1
    outer loop
      vertex 1.70312 -3.61931 0
      vertex 2.14331 3.37731 0
      vertex 2.14331 -3.37731 0
    endloop
  endfacet
  facet normal 0 0 -1
    outer loop
      vertex 1.70312 -3.61931 0
      vertex 1.70312 3.61931 0
      vertex 2.14331 3.37731 0
    endloop
  endfacet
  facet normal 0 0 -1
    outer loop
      vertex 1.23607 -3.80423 0
      vertex 1.70312 3.61931 0
      vertex 1.70312 -3.61931 0
    endloop
  endfacet
  facet normal 0 0 -1
    outer loop
      vertex 1.23607 -3.80423 0
      vertex 1.23607 3.80423 0
      vertex 1.70312 3.61931 0
    endloop
  endfacet
  facet normal 0 0 -1
    outer loop
      vertex 0.749525 -3.92915 0
      vertex 1.23607 3.80423 0
      vertex 1.23607 -3.80423 0
    endloop
  endfacet
  facet normal 0 0 -1
    outer loop
      vertex 0.749525 -3.92915 0
      vertex 0.749525 3.92915 0
      vertex 1.23607 3.80423 0
    endloop
  endfacet
  facet normal 0 0 -1
    outer loop
      vertex 0.251162 -3.99211 0
      vertex 0.749525 3.92915 0
      vertex 0.749525 -3.92915 0
    endloop
  endfacet
  facet normal 0 0 -1
    outer loop
      vertex 0.251162 -3.99211 0
      vertex 0.251162 3.99211 0
      vertex 0.749525 3.92915 0
    endloop
  endfacet
  facet normal 0 0 -1
    outer loop
      vertex -0.251162 -3.99211 0
      vertex 0.251162 3.99211 0
      vertex 0.251162 -3.99211 0
    endloop
  endfacet
  facet normal 0 0 -1
    outer loop
      vertex -0.251162 -3.99211 0
      vertex -0.251162 3.99211 0
      vertex 0.251162 3.99211 0
    endloop
  endfacet
  facet normal 0 0 -1
    outer loop
      vertex -0.749525 -3.92915 0
      vertex -0.251162 3.99211 0
      vertex -0.251162 -3.99211 0
    endloop
  endfacet
  facet normal 0 0 -1
    outer loop
      vertex -0.749525 -3.92915 0
      vertex -0.749525 3.92915 0
      vertex -0.251162 3.99211 0
    endloop
  endfacet
  facet normal 0 0 -1
    outer loop
      vertex -1.23607 -3.80423 0
      vertex -0.749525 3.92915 0
      vertex -0.749525 -3.92915 0
    endloop
  endfacet
  facet normal 0 0 -1
    outer loop
      vertex -1.23607 -3.80423 0
      vertex -1.23607 3.80423 0
      vertex -0.749525 3.92915 0
    endloop
  endfacet
  facet normal 0 0 -1
    outer loop
      vertex -1.70312 -3.61931 0
      vertex -1.23607 3.80423 0
      vertex -1.23607 -3.80423 0
    endloop
  endfacet
  facet normal 0 0 -1
    outer loop
      vertex -1.70312 -3.61931 0
      vertex -1.70312 3.61931 0
      vertex -1.23607 3.80423 0
    endloop
  endfacet
  facet normal 0 0 -1
    outer loop
      vertex -2.14331 -3.37731 0
      vertex -1.70312 3.61931 0
      vertex -1.70312 -3.61931 0
    endloop
  endfacet
  facet normal 0 0 -1
    outer loop
      vertex -2.14331 -3.37731 0
      vertex -2.14331 3.37731 0
      vertex -1.70312 3.61931 0
    endloop
  endfacet
  facet normal 0 0 -1
    outer loop
      vertex -2.5497 -3.08205 0
      vertex -2.14331 3.37731 0
      vertex -2.14331 -3.37731 0
    endloop
  endfacet
  facet normal 0 0 -1
    outer loop
      vertex -2.5497 -3.08205 0
      vertex -2.5497 3.08205 0
      vertex -2.14331 3.37731 0
    endloop
  endfacet
  facet normal 0 0 -1
    outer loop
      vertex -2.91587 -2.73819 0
      vertex -2.5497 3.08205 0
      vertex -2.5497 -3.08205 0
    endloop
  endfacet
  facet normal 0 0 -1
    outer loop
      vertex -2.91587 -2.73819 0
      vertex -2.91587 2.73819 0
      vertex -2.5497 3.08205 0
    endloop
  endfacet
  facet normal 0 0 -1
    outer loop
      vertex -3.23607 -2.35114 0
      vertex -2.91587 2.73819 0
      vertex -2.91587 -2.73819 0
    endloop
  endfacet
  facet normal 0 0 -1
    outer loop
      vertex -3.23607 -2.35114 0
      vertex -3.23607 2.35114 0
      vertex -2.91587 2.73819 0
    endloop
  endfacet
  facet normal 0 0 -1
    outer loop
      vertex -3.50523 -1.92701 0
      vertex -3.23607 2.35114 0
      vertex -3.23607 -2.35114 0
    endloop
  endfacet
  facet normal 0 0 -1
    outer loop
      vertex -3.50523 -1.92701 0
      vertex -3.50523 1.92701 0
      vertex -3.23607 2.35114 0
    endloop
  endfacet
  facet normal 0 0 -1
    outer loop
      vertex -3.71911 -1.4725 0
      vertex -3.50523 1.92701 0
      vertex -3.50523 -1.92701 0
    endloop
  endfacet
  facet normal 0 0 -1
    outer loop
      vertex -3.71911 -1.4725 0
      vertex -3.71911 1.4725 0
      vertex -3.50523 1.92701 0
    endloop
  endfacet
  facet normal 0 0 -1
    outer loop
      vertex -3.87433 -0.994759 0
      vertex -3.71911 1.4725 0
      vertex -3.71911 -1.4725 0
    endloop
  endfacet
  facet normal 0 0 -1
    outer loop
      vertex -3.87433 -0.994759 0
      vertex -3.87433 0.994759 0
      vertex -3.71911 1.4725 0
    endloop
  endfacet
  facet normal 0 0 -1
    outer loop
      vertex -3.96846 -0.501332 0
      vertex -3.87433 0.994759 0
      vertex -3.87433 -0.994759 0
    endloop
  endfacet
  facet normal 0 0 -1
    outer loop
      vertex -3.96846 -0.501332 0
      vertex -3.96846 0.501332 0
      vertex -3.87433 0.994759 0
    endloop
  endfacet
  facet normal 0 -0 -1
    outer loop
      vertex -3.96846 0.501332 0
      vertex -3.96846 -0.501332 0
      vertex -4 0 0
    endloop
  endfacet
  facet normal 0.998027 0.0627918 0
    outer loop
      vertex 4 0 6
      vertex 3.96846 0.501332 0
      vertex 3.96846 0.501332 6
    endloop
  endfacet
  facet normal 0.998027 0.0627918 0
    outer loop
      vertex 3.96846 0.501332 0
      vertex 4 0 6
      vertex 4 0 0
    endloop
  endfacet
  facet normal 0.587785 0.809017 -0
    outer loop
      vertex 2.5497 3.08205 0
      vertex 2.14331 3.37731 6
      vertex 2.5497 3.08205 6
    endloop
  endfacet
  facet normal 0.587785 0.809017 0
    outer loop
      vertex 2.14331 3.37731 6
      vertex 2.5497 3.08205 0
      vertex 2.14331 3.37731 0
    endloop
  endfacet
  facet normal -0.587785 -0.809017 0
    outer loop
      vertex -2.5497 -3.08205 0
      vertex -2.14331 -3.37731 6
      vertex -2.5497 -3.08205 6
    endloop
  endfacet
  facet normal -0.587785 -0.809017 -0
    outer loop
      vertex -2.14331 -3.37731 6
      vertex -2.5497 -3.08205 0
      vertex -2.14331 -3.37731 0
    endloop
  endfacet
  facet normal 0.951057 -0.309017 0
    outer loop
      vertex 3.71911 -1.4725 6
      vertex 3.87433 -0.994759 0
      vertex 3.87433 -0.994759 6
    endloop
  endfacet
  facet normal 0.951057 -0.309017 0
    outer loop
      vertex 3.87433 -0.994759 0
      vertex 3.71911 -1.4725 6
      vertex 3.71911 -1.4725 0
    endloop
  endfacet
  facet normal -0.24869 0.968583 0
    outer loop
      vertex -0.749525 3.92915 0
      vertex -1.23607 3.80423 6
      vertex -0.749525 3.92915 6
    endloop
  endfacet
  facet normal -0.24869 0.968583 0
    outer loop
      vertex -1.23607 3.80423 6
      vertex -0.749525 3.92915 0
      vertex -1.23607 3.80423 0
    endloop
  endfacet
  facet normal 0.904827 -0.42578 0
    outer loop
      vertex 3.50523 -1.92701 6
      vertex 3.71911 -1.4725 0
      vertex 3.71911 -1.4725 6
    endloop
  endfacet
  facet normal 0.904827 -0.42578 0
    outer loop
      vertex 3.71911 -1.4725 0
      vertex 3.50523 -1.92701 6
      vertex 3.50523 -1.92701 0
    endloop
  endfacet
  facet normal -0.998027 -0.0627918 0
    outer loop
      vertex -3.96846 -0.501332 0
      vertex -4 0 6
      vertex -4 0 0
    endloop
  endfacet
  facet normal -0.998027 -0.0627918 0
    outer loop
      vertex -4 0 6
      vertex -3.96846 -0.501332 0
      vertex -3.96846 -0.501332 6
    endloop
  endfacet
  facet normal 0.844328 0.535826 0
    outer loop
      vertex 3.50523 1.92701 6
      vertex 3.23607 2.35114 0
      vertex 3.23607 2.35114 6
    endloop
  endfacet
  facet normal 0.844328 0.535826 0
    outer loop
      vertex 3.23607 2.35114 0
      vertex 3.50523 1.92701 6
      vertex 3.50523 1.92701 0
    endloop
  endfacet
  facet normal 0.982287 -0.187381 0
    outer loop
      vertex 3.87433 -0.994759 6
      vertex 3.96846 -0.501332 0
      vertex 3.96846 -0.501332 6
    endloop
  endfacet
  facet normal 0.982287 -0.187381 0
    outer loop
      vertex 3.96846 -0.501332 0
      vertex 3.87433 -0.994759 6
      vertex 3.87433 -0.994759 0
    endloop
  endfacet
  facet normal -0.844328 -0.535826 0
    outer loop
      vertex -3.23607 -2.35114 0
      vertex -3.50523 -1.92701 6
      vertex -3.50523 -1.92701 0
    endloop
  endfacet
  facet normal -0.844328 -0.535826 0
    outer loop
      vertex -3.50523 -1.92701 6
      vertex -3.23607 -2.35114 0
      vertex -3.23607 -2.35114 6
    endloop
  endfacet
  facet normal -0.368126 -0.929776 0
    outer loop
      vertex -1.70312 -3.61931 0
      vertex -1.23607 -3.80423 6
      vertex -1.70312 -3.61931 6
    endloop
  endfacet
  facet normal -0.368126 -0.929776 -0
    outer loop
      vertex -1.23607 -3.80423 6
      vertex -1.70312 -3.61931 0
      vertex -1.23607 -3.80423 0
    endloop
  endfacet
  facet normal -0.24869 -0.968583 0
    outer loop
      vertex -1.23607 -3.80423 0
      vertex -0.749525 -3.92915 6
      vertex -1.23607 -3.80423 6
    endloop
  endfacet
  facet normal -0.24869 -0.968583 -0
    outer loop
      vertex -0.749525 -3.92915 6
      vertex -1.23607 -3.80423 0
      vertex -0.749525 -3.92915 0
    endloop
  endfacet
  facet normal -0.125333 -0.992115 0
    outer loop
      vertex -0.749525 -3.92915 0
      vertex -0.251162 -3.99211 6
      vertex -0.749525 -3.92915 6
    endloop
  endfacet
  facet normal -0.125333 -0.992115 -0
    outer loop
      vertex -0.251162 -3.99211 6
      vertex -0.749525 -3.92915 0
      vertex -0.251162 -3.99211 0
    endloop
  endfacet
  facet normal 0.368126 -0.929776 0
    outer loop
      vertex 1.23607 -3.80423 0
      vertex 1.70312 -3.61931 6
      vertex 1.23607 -3.80423 6
    endloop
  endfacet
  facet normal 0.368126 -0.929776 0
    outer loop
      vertex 1.70312 -3.61931 6
      vertex 1.23607 -3.80423 0
      vertex 1.70312 -3.61931 0
    endloop
  endfacet
  facet normal 0.481754 -0.876307 0
    outer loop
      vertex 1.70312 -3.61931 0
      vertex 2.14331 -3.37731 6
      vertex 1.70312 -3.61931 6
    endloop
  endfacet
  facet normal 0.481754 -0.876307 0
    outer loop
      vertex 2.14331 -3.37731 6
      vertex 1.70312 -3.61931 0
      vertex 2.14331 -3.37731 0
    endloop
  endfacet
  facet normal 0.770513 -0.637424 0
    outer loop
      vertex 2.91587 -2.73819 6
      vertex 3.23607 -2.35114 0
      vertex 3.23607 -2.35114 6
    endloop
  endfacet
  facet normal 0.770513 -0.637424 0
    outer loop
      vertex 3.23607 -2.35114 0
      vertex 2.91587 -2.73819 6
      vertex 2.91587 -2.73819 0
    endloop
  endfacet
  facet normal -0.481754 0.876307 0
    outer loop
      vertex -1.70312 3.61931 0
      vertex -2.14331 3.37731 6
      vertex -1.70312 3.61931 6
    endloop
  endfacet
  facet normal -0.481754 0.876307 0
    outer loop
      vertex -2.14331 3.37731 6
      vertex -1.70312 3.61931 0
      vertex -2.14331 3.37731 0
    endloop
  endfacet
  facet normal -0.770513 0.637424 0
    outer loop
      vertex -3.23607 2.35114 0
      vertex -2.91587 2.73819 6
      vertex -2.91587 2.73819 0
    endloop
  endfacet
  facet normal -0.770513 0.637424 0
    outer loop
      vertex -2.91587 2.73819 6
      vertex -3.23607 2.35114 0
      vertex -3.23607 2.35114 6
    endloop
  endfacet
  facet normal -0.844328 0.535826 0
    outer loop
      vertex -3.50523 1.92701 0
      vertex -3.23607 2.35114 6
      vertex -3.23607 2.35114 0
    endloop
  endfacet
  facet normal -0.844328 0.535826 0
    outer loop
      vertex -3.23607 2.35114 6
      vertex -3.50523 1.92701 0
      vertex -3.50523 1.92701 6
    endloop
  endfacet
  facet normal -0.951057 0.309017 0
    outer loop
      vertex -3.87433 0.994759 0
      vertex -3.71911 1.4725 6
      vertex -3.71911 1.4725 0
    endloop
  endfacet
  facet normal -0.951057 0.309017 0
    outer loop
      vertex -3.71911 1.4725 6
      vertex -3.87433 0.994759 0
      vertex -3.87433 0.994759 6
    endloop
  endfacet
  facet normal 0.770513 0.637424 0
    outer loop
      vertex 3.23607 2.35114 6
      vertex 2.91587 2.73819 0
      vertex 2.91587 2.73819 6
    endloop
  endfacet
  facet normal 0.770513 0.637424 0
    outer loop
      vertex 2.91587 2.73819 0
      vertex 3.23607 2.35114 6
      vertex 3.23607 2.35114 0
    endloop
  endfacet
  facet normal 0.951057 0.309017 0
    outer loop
      vertex 3.87433 0.994759 6
      vertex 3.71911 1.4725 0
      vertex 3.71911 1.4725 6
    endloop
  endfacet
  facet normal 0.951057 0.309017 0
    outer loop
      vertex 3.71911 1.4725 0
      vertex 3.87433 0.994759 6
      vertex 3.87433 0.994759 0
    endloop
  endfacet
  facet normal 0.24869 0.968583 -0
    outer loop
      vertex 1.23607 3.80423 0
      vertex 0.749525 3.92915 6
      vertex 1.23607 3.80423 6
    endloop
  endfacet
  facet normal 0.24869 0.968583 0
    outer loop
      vertex 0.749525 3.92915 6
      vertex 1.23607 3.80423 0
      vertex 0.749525 3.92915 0
    endloop
  endfacet
  facet normal 0.368126 0.929776 -0
    outer loop
      vertex 1.70312 3.61931 0
      vertex 1.23607 3.80423 6
      vertex 1.70312 3.61931 6
    endloop
  endfacet
  facet normal 0.368126 0.929776 0
    outer loop
      vertex 1.23607 3.80423 6
      vertex 1.70312 3.61931 0
      vertex 1.23607 3.80423 0
    endloop
  endfacet
  facet normal -0.125333 0.992115 0
    outer loop
      vertex -0.251162 3.99211 0
      vertex -0.749525 3.92915 6
      vertex -0.251162 3.99211 6
    endloop
  endfacet
  facet normal -0.125333 0.992115 0
    outer loop
      vertex -0.749525 3.92915 6
      vertex -0.251162 3.99211 0
      vertex -0.749525 3.92915 0
    endloop
  endfacet
  facet normal 0.998027 -0.0627918 0
    outer loop
      vertex 3.96846 -0.501332 6
      vertex 4 0 0
      vertex 4 0 6
    endloop
  endfacet
  facet normal 0.998027 -0.0627918 0
    outer loop
      vertex 4 0 0
      vertex 3.96846 -0.501332 6
      vertex 3.96846 -0.501332 0
    endloop
  endfacet
  facet normal -0.982287 -0.187381 0
    outer loop
      vertex -3.87433 -0.994759 0
      vertex -3.96846 -0.501332 6
      vertex -3.96846 -0.501332 0
    endloop
  endfacet
  facet normal -0.982287 -0.187381 0
    outer loop
      vertex -3.96846 -0.501332 6
      vertex -3.87433 -0.994759 0
      vertex -3.87433 -0.994759 6
    endloop
  endfacet
  facet normal -0.770513 -0.637424 0
    outer loop
      vertex -2.91587 -2.73819 0
      vertex -3.23607 -2.35114 6
      vertex -3.23607 -2.35114 0
    endloop
  endfacet
  facet normal -0.770513 -0.637424 0
    outer loop
      vertex -3.23607 -2.35114 6
      vertex -2.91587 -2.73819 0
      vertex -2.91587 -2.73819 6
    endloop
  endfacet
  facet normal -0.684546 -0.72897 0
    outer loop
      vertex -2.91587 -2.73819 0
      vertex -2.5497 -3.08205 6
      vertex -2.91587 -2.73819 6
    endloop
  endfacet
  facet normal -0.684546 -0.72897 -0
    outer loop
      vertex -2.5497 -3.08205 6
      vertex -2.91587 -2.73819 0
      vertex -2.5497 -3.08205 0
    endloop
  endfacet
  facet normal -0.904827 -0.42578 0
    outer loop
      vertex -3.50523 -1.92701 0
      vertex -3.71911 -1.4725 6
      vertex -3.71911 -1.4725 0
    endloop
  endfacet
  facet normal -0.904827 -0.42578 0
    outer loop
      vertex -3.71911 -1.4725 6
      vertex -3.50523 -1.92701 0
      vertex -3.50523 -1.92701 6
    endloop
  endfacet
  facet normal -0.481754 -0.876307 0
    outer loop
      vertex -2.14331 -3.37731 0
      vertex -1.70312 -3.61931 6
      vertex -2.14331 -3.37731 6
    endloop
  endfacet
  facet normal -0.481754 -0.876307 -0
    outer loop
      vertex -1.70312 -3.61931 6
      vertex -2.14331 -3.37731 0
      vertex -1.70312 -3.61931 0
    endloop
  endfacet
  facet normal 0.125333 -0.992115 0
    outer loop
      vertex 0.251162 -3.99211 0
      vertex 0.749525 -3.92915 6
      vertex 0.251162 -3.99211 6
    endloop
  endfacet
  facet normal 0.125333 -0.992115 0
    outer loop
      vertex 0.749525 -3.92915 6
      vertex 0.251162 -3.99211 0
      vertex 0.749525 -3.92915 0
    endloop
  endfacet
  facet normal 0.684546 -0.72897 0
    outer loop
      vertex 2.5497 -3.08205 0
      vertex 2.91587 -2.73819 6
      vertex 2.5497 -3.08205 6
    endloop
  endfacet
  facet normal 0.684546 -0.72897 0
    outer loop
      vertex 2.91587 -2.73819 6
      vertex 2.5497 -3.08205 0
      vertex 2.91587 -2.73819 0
    endloop
  endfacet
  facet normal 0.587785 -0.809017 0
    outer loop
      vertex 2.14331 -3.37731 0
      vertex 2.5497 -3.08205 6
      vertex 2.14331 -3.37731 6
    endloop
  endfacet
  facet normal 0.587785 -0.809017 0
    outer loop
      vertex 2.5497 -3.08205 6
      vertex 2.14331 -3.37731 0
      vertex 2.5497 -3.08205 0
    endloop
  endfacet
  facet normal 0.844328 -0.535826 0
    outer loop
      vertex 3.23607 -2.35114 6
      vertex 3.50523 -1.92701 0
      vertex 3.50523 -1.92701 6
    endloop
  endfacet
  facet normal 0.844328 -0.535826 0
    outer loop
      vertex 3.50523 -1.92701 0
      vertex 3.23607 -2.35114 6
      vertex 3.23607 -2.35114 0
    endloop
  endfacet
  facet normal -0.368126 0.929776 0
    outer loop
      vertex -1.23607 3.80423 0
      vertex -1.70312 3.61931 6
      vertex -1.23607 3.80423 6
    endloop
  endfacet
  facet normal -0.368126 0.929776 0
    outer loop
      vertex -1.70312 3.61931 6
      vertex -1.23607 3.80423 0
      vertex -1.70312 3.61931 0
    endloop
  endfacet
  facet normal -0.684546 0.72897 0
    outer loop
      vertex -2.5497 3.08205 0
      vertex -2.91587 2.73819 6
      vertex -2.5497 3.08205 6
    endloop
  endfacet
  facet normal -0.684546 0.72897 0
    outer loop
      vertex -2.91587 2.73819 6
      vertex -2.5497 3.08205 0
      vertex -2.91587 2.73819 0
    endloop
  endfacet
  facet normal -0.587785 0.809017 0
    outer loop
      vertex -2.14331 3.37731 0
      vertex -2.5497 3.08205 6
      vertex -2.14331 3.37731 6
    endloop
  endfacet
  facet normal -0.587785 0.809017 0
    outer loop
      vertex -2.5497 3.08205 6
      vertex -2.14331 3.37731 0
      vertex -2.5497 3.08205 0
    endloop
  endfacet
  facet normal -0.904827 0.42578 0
    outer loop
      vertex -3.71911 1.4725 0
      vertex -3.50523 1.92701 6
      vertex -3.50523 1.92701 0
    endloop
  endfacet
  facet normal -0.904827 0.42578 0
    outer loop
      vertex -3.50523 1.92701 6
      vertex -3.71911 1.4725 0
      vertex -3.71911 1.4725 6
    endloop
  endfacet
  facet normal -0.982287 0.187381 0
    outer loop
      vertex -3.96846 0.501332 0
      vertex -3.87433 0.994759 6
      vertex -3.87433 0.994759 0
    endloop
  endfacet
  facet normal -0.982287 0.187381 0
    outer loop
      vertex -3.87433 0.994759 6
      vertex -3.96846 0.501332 0
      vertex -3.96846 0.501332 6
    endloop
  endfacet
  facet normal -0.998027 0.0627918 0
    outer loop
      vertex -4 0 0
      vertex -3.96846 0.501332 6
      vertex -3.96846 0.501332 0
    endloop
  endfacet
  facet normal -0.998027 0.0627918 0
    outer loop
      vertex -3.96846 0.501332 6
      vertex -4 0 0
      vertex -4 0 6
    endloop
  endfacet
  facet normal 0.684546 0.72897 -0
    outer loop
      vertex 2.91587 2.73819 0
      vertex 2.5497 3.08205 6
      vertex 2.91587 2.73819 6
    endloop
  endfacet
  facet normal 0.684546 0.72897 0
    outer loop
      vertex 2.5497 3.08205 6
      vertex 2.91587 2.73819 0
      vertex 2.5497 3.08205 0
    endloop
  endfacet
  facet normal 0.904827 0.42578 0
    outer loop
      vertex 3.71911 1.4725 6
      vertex 3.50523 1.92701 0
      vertex 3.50523 1.92701 6
    endloop
  endfacet
  facet normal 0.904827 0.42578 0
    outer loop
      vertex 3.50523 1.92701 0
      vertex 3.71911 1.4725 6
      vertex 3.71911 1.4725 0
    endloop
  endfacet
  facet normal 0.481754 0.876307 -0
    outer loop
      vertex 2.14331 3.37731 0
      vertex 1.70312 3.61931 6
      vertex 2.14331 3.37731 6
    endloop
  endfacet
  facet normal 0.481754 0.876307 0
    outer loop
      vertex 1.70312 3.61931 6
      vertex 2.14331 3.37731 0
      vertex 1.70312 3.61931 0
    endloop
  endfacet
  facet normal -0.951057 -0.309017 0
    outer loop
      vertex -3.71911 -1.4725 0
      vertex -3.87433 -0.994759 6
      vertex -3.87433 -0.994759 0
    endloop
  endfacet
  facet normal -0.951057 -0.309017 0
    outer loop
      vertex -3.87433 -0.994759 6
      vertex -3.71911 -1.4725 0
      vertex -3.71911 -1.4725 6
    endloop
  endfacet
  facet normal 0 -1 0
    outer loop
      vertex -0.251162 -3.99211 0
      vertex 0.251162 -3.99211 6
      vertex -0.251162 -3.99211 6
    endloop
  endfacet
  facet normal 0 -1 -0
    outer loop
      vertex 0.251162 -3.99211 6
      vertex -0.251162 -3.99211 0
      vertex 0.251162 -3.99211 0
    endloop
  endfacet
  facet normal 0.24869 -0.968583 0
    outer loop
      vertex 0.749525 -3.92915 0
      vertex 1.23607 -3.80423 6
      vertex 0.749525 -3.92915 6
    endloop
  endfacet
  facet normal 0.24869 -0.968583 0
    outer loop
      vertex 1.23607 -3.80423 6
      vertex 0.749525 -3.92915 0
      vertex 1.23607 -3.80423 0
    endloop
  endfacet
  facet normal 0 0 1
    outer loop
      vertex 3.7 0 6
      vertex 4 0 6
      vertex 3.96846 0.501332 6
    endloop
  endfacet
  facet normal 0 0 1
    outer loop
      vertex 3.67082 0.463733 6
      vertex 3.96846 0.501332 6
      vertex 3.87433 0.994759 6
    endloop
  endfacet
  facet normal 0 0 1
    outer loop
      vertex 4 0 6
      vertex 3.7 0 6
      vertex 3.96846 -0.501332 6
    endloop
  endfacet
  facet normal 0 0 1
    outer loop
      vertex 3.58376 0.920152 6
      vertex 3.87433 0.994759 6
      vertex 3.71911 1.4725 6
    endloop
  endfacet
  facet normal -0 0 1
    outer loop
      vertex 3.67082 -0.463733 6
      vertex 3.96846 -0.501332 6
      vertex 3.7 0 6
    endloop
  endfacet
  facet normal 0 0 1
    outer loop
      vertex 3.96846 -0.501332 6
      vertex 3.67082 -0.463733 6
      vertex 3.87433 -0.994759 6
    endloop
  endfacet
  facet normal 0 0 1
    outer loop
      vertex 3.96846 0.501332 6
      vertex 3.67082 0.463733 6
      vertex 3.7 0 6
    endloop
  endfacet
  facet normal 0 0 1
    outer loop
      vertex 3.87433 0.994759 6
      vertex 3.58376 0.920152 6
      vertex 3.67082 0.463733 6
    endloop
  endfacet
  facet normal 0 0 1
    outer loop
      vertex 3.44017 1.36206 6
      vertex 3.71911 1.4725 6
      vertex 3.50523 1.92701 6
    endloop
  endfacet
  facet normal 0 0 1
    outer loop
      vertex 3.71911 1.4725 6
      vertex 3.44017 1.36206 6
      vertex 3.58376 0.920152 6
    endloop
  endfacet
  facet normal 0 0 1
    outer loop
      vertex 3.50523 1.92701 6
      vertex 3.24233 1.78249 6
      vertex 3.44017 1.36206 6
    endloop
  endfacet
  facet normal 0 0 1
    outer loop
      vertex 3.23607 2.35114 6
      vertex 3.24233 1.78249 6
      vertex 3.50523 1.92701 6
    endloop
  endfacet
  facet normal 0 0 1
    outer loop
      vertex 3.23607 2.35114 6
      vertex 2.99336 2.1748 6
      vertex 3.24233 1.78249 6
    endloop
  endfacet
  facet normal 0 0 1
    outer loop
      vertex 2.91587 2.73819 6
      vertex 2.99336 2.1748 6
      vertex 3.23607 2.35114 6
    endloop
  endfacet
  facet normal 0 0 1
    outer loop
      vertex 2.91587 2.73819 6
      vertex 2.69718 2.53282 6
      vertex 2.99336 2.1748 6
    endloop
  endfacet
  facet normal 0 0 1
    outer loop
      vertex 2.5497 3.08205 6
      vertex 2.69718 2.53282 6
      vertex 2.91587 2.73819 6
    endloop
  endfacet
  facet normal 0 0 1
    outer loop
      vertex 2.5497 3.08205 6
      vertex 2.35847 2.8509 6
      vertex 2.69718 2.53282 6
    endloop
  endfacet
  facet normal 0 0 1
    outer loop
      vertex 2.14331 3.37731 6
      vertex 2.35847 2.8509 6
      vertex 2.5497 3.08205 6
    endloop
  endfacet
  facet normal 0 0 1
    outer loop
      vertex 2.14331 3.37731 6
      vertex 1.98256 3.12401 6
      vertex 2.35847 2.8509 6
    endloop
  endfacet
  facet normal 0 0 1
    outer loop
      vertex 1.70312 3.61931 6
      vertex 1.98256 3.12401 6
      vertex 2.14331 3.37731 6
    endloop
  endfacet
  facet normal 0 0 1
    outer loop
      vertex 1.70312 3.61931 6
      vertex 1.57538 3.34786 6
      vertex 1.98256 3.12401 6
    endloop
  endfacet
  facet normal 0 0 1
    outer loop
      vertex 1.23607 3.80423 6
      vertex 1.57538 3.34786 6
      vertex 1.70312 3.61931 6
    endloop
  endfacet
  facet normal 0 0 1
    outer loop
      vertex 1.23607 3.80423 6
      vertex 1.14336 3.51891 6
      vertex 1.57538 3.34786 6
    endloop
  endfacet
  facet normal 0 0 1
    outer loop
      vertex 0.749525 3.92915 6
      vertex 1.14336 3.51891 6
      vertex 1.23607 3.80423 6
    endloop
  endfacet
  facet normal 0 0 1
    outer loop
      vertex 0.749525 3.92915 6
      vertex 0.693311 3.63446 6
      vertex 1.14336 3.51891 6
    endloop
  endfacet
  facet normal 0 0 1
    outer loop
      vertex 0.251162 3.99211 6
      vertex 0.693311 3.63446 6
      vertex 0.749525 3.92915 6
    endloop
  endfacet
  facet normal 0 0 1
    outer loop
      vertex 0.251162 3.99211 6
      vertex 0.232325 3.6927 6
      vertex 0.693311 3.63446 6
    endloop
  endfacet
  facet normal 0 0 1
    outer loop
      vertex 0.251162 3.99211 6
      vertex -0.232325 3.6927 6
      vertex 0.232325 3.6927 6
    endloop
  endfacet
  facet normal -0 0 1
    outer loop
      vertex -0.251162 3.99211 6
      vertex -0.232325 3.6927 6
      vertex 0.251162 3.99211 6
    endloop
  endfacet
  facet normal 0 0 1
    outer loop
      vertex -0.251162 3.99211 6
      vertex -0.693311 3.63446 6
      vertex -0.232325 3.6927 6
    endloop
  endfacet
  facet normal -0 0 1
    outer loop
      vertex -0.749525 3.92915 6
      vertex -0.693311 3.63446 6
      vertex -0.251162 3.99211 6
    endloop
  endfacet
  facet normal 0 0 1
    outer loop
      vertex -0.749525 3.92915 6
      vertex -1.14336 3.51891 6
      vertex -0.693311 3.63446 6
    endloop
  endfacet
  facet normal -0 0 1
    outer loop
      vertex -1.23607 3.80423 6
      vertex -1.14336 3.51891 6
      vertex -0.749525 3.92915 6
    endloop
  endfacet
  facet normal 0 0 1
    outer loop
      vertex -1.23607 3.80423 6
      vertex -1.57538 3.34786 6
      vertex -1.14336 3.51891 6
    endloop
  endfacet
  facet normal -0 0 1
    outer loop
      vertex -1.70312 3.61931 6
      vertex -1.57538 3.34786 6
      vertex -1.23607 3.80423 6
    endloop
  endfacet
  facet normal 0 0 1
    outer loop
      vertex -1.70312 3.61931 6
      vertex -1.98256 3.12401 6
      vertex -1.57538 3.34786 6
    endloop
  endfacet
  facet normal -0 0 1
    outer loop
      vertex -2.14331 3.37731 6
      vertex -1.98256 3.12401 6
      vertex -1.70312 3.61931 6
    endloop
  endfacet
  facet normal 0 0 1
    outer loop
      vertex -2.14331 3.37731 6
      vertex -2.35847 2.8509 6
      vertex -1.98256 3.12401 6
    endloop
  endfacet
  facet normal -0 0 1
    outer loop
      vertex -2.5497 3.08205 6
      vertex -2.35847 2.8509 6
      vertex -2.14331 3.37731 6
    endloop
  endfacet
  facet normal 0 0 1
    outer loop
      vertex -2.5497 3.08205 6
      vertex -2.69718 2.53282 6
      vertex -2.35847 2.8509 6
    endloop
  endfacet
  facet normal -0 0 1
    outer loop
      vertex -2.91587 2.73819 6
      vertex -2.69718 2.53282 6
      vertex -2.5497 3.08205 6
    endloop
  endfacet
  facet normal 0 0 1
    outer loop
      vertex -2.91587 2.73819 6
      vertex -2.99336 2.1748 6
      vertex -2.69718 2.53282 6
    endloop
  endfacet
  facet normal -0 0 1
    outer loop
      vertex -3.23607 2.35114 6
      vertex -2.99336 2.1748 6
      vertex -2.91587 2.73819 6
    endloop
  endfacet
  facet normal 0 0 1
    outer loop
      vertex -3.23607 2.35114 6
      vertex -3.24233 1.78249 6
      vertex -2.99336 2.1748 6
    endloop
  endfacet
  facet normal -0 0 1
    outer loop
      vertex -3.50523 1.92701 6
      vertex -3.24233 1.78249 6
      vertex -3.23607 2.35114 6
    endloop
  endfacet
  facet normal 0 0 1
    outer loop
      vertex -3.24233 1.78249 6
      vertex -3.50523 1.92701 6
      vertex -3.44017 1.36206 6
    endloop
  endfacet
  facet normal -0 0 1
    outer loop
      vertex -3.71911 1.4725 6
      vertex -3.44017 1.36206 6
      vertex -3.50523 1.92701 6
    endloop
  endfacet
  facet normal 0 0 1
    outer loop
      vertex -3.44017 1.36206 6
      vertex -3.71911 1.4725 6
      vertex -3.58376 0.920152 6
    endloop
  endfacet
  facet normal 0 0 1
    outer loop
      vertex -3.58376 0.920152 6
      vertex -3.87433 0.994759 6
      vertex -3.67082 0.463733 6
    endloop
  endfacet
  facet normal -0 0 1
    outer loop
      vertex -3.87433 0.994759 6
      vertex -3.58376 0.920152 6
      vertex -3.71911 1.4725 6
    endloop
  endfacet
  facet normal -0 0 1
    outer loop
      vertex 3.58376 -0.920152 6
      vertex 3.87433 -0.994759 6
      vertex 3.67082 -0.463733 6
    endloop
  endfacet
  facet normal 0 0 1
    outer loop
      vertex 3.87433 -0.994759 6
      vertex 3.58376 -0.920152 6
      vertex 3.71911 -1.4725 6
    endloop
  endfacet
  facet normal -0 0 1
    outer loop
      vertex 3.44017 -1.36206 6
      vertex 3.71911 -1.4725 6
      vertex 3.58376 -0.920152 6
    endloop
  endfacet
  facet normal 0 0 1
    outer loop
      vertex 3.71911 -1.4725 6
      vertex 3.44017 -1.36206 6
      vertex 3.50523 -1.92701 6
    endloop
  endfacet
  facet normal -0 0 1
    outer loop
      vertex 3.24233 -1.78249 6
      vertex 3.50523 -1.92701 6
      vertex 3.44017 -1.36206 6
    endloop
  endfacet
  facet normal 0 0 1
    outer loop
      vertex 3.24233 -1.78249 6
      vertex 3.23607 -2.35114 6
      vertex 3.50523 -1.92701 6
    endloop
  endfacet
  facet normal -0 0 1
    outer loop
      vertex 2.99336 -2.1748 6
      vertex 3.23607 -2.35114 6
      vertex 3.24233 -1.78249 6
    endloop
  endfacet
  facet normal 0 0 1
    outer loop
      vertex 2.99336 -2.1748 6
      vertex 2.91587 -2.73819 6
      vertex 3.23607 -2.35114 6
    endloop
  endfacet
  facet normal -0 0 1
    outer loop
      vertex 2.69718 -2.53282 6
      vertex 2.91587 -2.73819 6
      vertex 2.99336 -2.1748 6
    endloop
  endfacet
  facet normal 0 0 1
    outer loop
      vertex 2.69718 -2.53282 6
      vertex 2.5497 -3.08205 6
      vertex 2.91587 -2.73819 6
    endloop
  endfacet
  facet normal -0 0 1
    outer loop
      vertex 2.35847 -2.8509 6
      vertex 2.5497 -3.08205 6
      vertex 2.69718 -2.53282 6
    endloop
  endfacet
  facet normal 0 0 1
    outer loop
      vertex 2.35847 -2.8509 6
      vertex 2.14331 -3.37731 6
      vertex 2.5497 -3.08205 6
    endloop
  endfacet
  facet normal -0 0 1
    outer loop
      vertex 1.98256 -3.12401 6
      vertex 2.14331 -3.37731 6
      vertex 2.35847 -2.8509 6
    endloop
  endfacet
  facet normal 0 0 1
    outer loop
      vertex 1.98256 -3.12401 6
      vertex 1.70312 -3.61931 6
      vertex 2.14331 -3.37731 6
    endloop
  endfacet
  facet normal -0 0 1
    outer loop
      vertex 1.57538 -3.34786 6
      vertex 1.70312 -3.61931 6
      vertex 1.98256 -3.12401 6
    endloop
  endfacet
  facet normal 0 0 1
    outer loop
      vertex 1.57538 -3.34786 6
      vertex 1.23607 -3.80423 6
      vertex 1.70312 -3.61931 6
    endloop
  endfacet
  facet normal -0 0 1
    outer loop
      vertex 1.14336 -3.51891 6
      vertex 1.23607 -3.80423 6
      vertex 1.57538 -3.34786 6
    endloop
  endfacet
  facet normal 0 0 1
    outer loop
      vertex 1.14336 -3.51891 6
      vertex 0.749525 -3.92915 6
      vertex 1.23607 -3.80423 6
    endloop
  endfacet
  facet normal -0 0 1
    outer loop
      vertex 0.693311 -3.63446 6
      vertex 0.749525 -3.92915 6
      vertex 1.14336 -3.51891 6
    endloop
  endfacet
  facet normal 0 0 1
    outer loop
      vertex 0.693311 -3.63446 6
      vertex 0.251162 -3.99211 6
      vertex 0.749525 -3.92915 6
    endloop
  endfacet
  facet normal -0 0 1
    outer loop
      vertex 0.232325 -3.6927 6
      vertex 0.251162 -3.99211 6
      vertex 0.693311 -3.63446 6
    endloop
  endfacet
  facet normal -0 0 1
    outer loop
      vertex -0.232325 -3.6927 6
      vertex 0.251162 -3.99211 6
      vertex 0.232325 -3.6927 6
    endloop
  endfacet
  facet normal 0 0 1
    outer loop
      vertex -0.232325 -3.6927 6
      vertex -0.251162 -3.99211 6
      vertex 0.251162 -3.99211 6
    endloop
  endfacet
  facet normal 0 0 1
    outer loop
      vertex -0.693311 -3.63446 6
      vertex -0.251162 -3.99211 6
      vertex -0.232325 -3.6927 6
    endloop
  endfacet
  facet normal 0 0 1
    outer loop
      vertex -0.693311 -3.63446 6
      vertex -0.749525 -3.92915 6
      vertex -0.251162 -3.99211 6
    endloop
  endfacet
  facet normal 0 0 1
    outer loop
      vertex -1.14336 -3.51891 6
      vertex -0.749525 -3.92915 6
      vertex -0.693311 -3.63446 6
    endloop
  endfacet
  facet normal 0 0 1
    outer loop
      vertex -1.14336 -3.51891 6
      vertex -1.23607 -3.80423 6
      vertex -0.749525 -3.92915 6
    endloop
  endfacet
  facet normal 0 0 1
    outer loop
      vertex -1.57538 -3.34786 6
      vertex -1.23607 -3.80423 6
      vertex -1.14336 -3.51891 6
    endloop
  endfacet
  facet normal 0 0 1
    outer loop
      vertex -1.57538 -3.34786 6
      vertex -1.70312 -3.61931 6
      vertex -1.23607 -3.80423 6
    endloop
  endfacet
  facet normal 0 0 1
    outer loop
      vertex -1.98256 -3.12401 6
      vertex -1.70312 -3.61931 6
      vertex -1.57538 -3.34786 6
    endloop
  endfacet
  facet normal 0 0 1
    outer loop
      vertex -1.98256 -3.12401 6
      vertex -2.14331 -3.37731 6
      vertex -1.70312 -3.61931 6
    endloop
  endfacet
  facet normal 0 0 1
    outer loop
      vertex -2.35847 -2.8509 6
      vertex -2.14331 -3.37731 6
      vertex -1.98256 -3.12401 6
    endloop
  endfacet
  facet normal 0 0 1
    outer loop
      vertex -2.35847 -2.8509 6
      vertex -2.5497 -3.08205 6
      vertex -2.14331 -3.37731 6
    endloop
  endfacet
  facet normal 0 0 1
    outer loop
      vertex -2.69718 -2.53282 6
      vertex -2.5497 -3.08205 6
      vertex -2.35847 -2.8509 6
    endloop
  endfacet
  facet normal 0 0 1
    outer loop
      vertex -2.69718 -2.53282 6
      vertex -2.91587 -2.73819 6
      vertex -2.5497 -3.08205 6
    endloop
  endfacet
  facet normal 0 0 1
    outer loop
      vertex -2.99336 -2.1748 6
      vertex -2.91587 -2.73819 6
      vertex -2.69718 -2.53282 6
    endloop
  endfacet
  facet normal 0 0 1
    outer loop
      vertex -2.99336 -2.1748 6
      vertex -3.23607 -2.35114 6
      vertex -2.91587 -2.73819 6
    endloop
  endfacet
  facet normal 0 0 1
    outer loop
      vertex -3.24233 -1.78249 6
      vertex -3.23607 -2.35114 6
      vertex -2.99336 -2.1748 6
    endloop
  endfacet
  facet normal 0 0 1
    outer loop
      vertex -3.50523 -1.92701 6
      vertex -3.24233 -1.78249 6
      vertex -3.44017 -1.36206 6
    endloop
  endfacet
  facet normal 0 0 1
    outer loop
      vertex -3.24233 -1.78249 6
      vertex -3.50523 -1.92701 6
      vertex -3.23607 -2.35114 6
    endloop
  endfacet
  facet normal 0 0 1
    outer loop
      vertex -3.71911 -1.4725 6
      vertex -3.44017 -1.36206 6
      vertex -3.58376 -0.920152 6
    endloop
  endfacet
  facet normal 0 0 1
    outer loop
      vertex -3.87433 -0.994759 6
      vertex -3.58376 -0.920152 6
      vertex -3.67082 -0.463733 6
    endloop
  endfacet
  facet normal 0 0 1
    outer loop
      vertex -3.44017 -1.36206 6
      vertex -3.71911 -1.4725 6
      vertex -3.50523 -1.92701 6
    endloop
  endfacet
  facet normal 0 0 1
    outer loop
      vertex -3.96846 -0.501332 6
      vertex -3.67082 -0.463733 6
      vertex -3.7 0 6
    endloop
  endfacet
  facet normal -0 0 1
    outer loop
      vertex -3.96846 0.501332 6
      vertex -3.67082 0.463733 6
      vertex -3.87433 0.994759 6
    endloop
  endfacet
  facet normal 0 0 1
    outer loop
      vertex -3.67082 0.463733 6
      vertex -3.96846 0.501332 6
      vertex -3.7 0 6
    endloop
  endfacet
  facet normal 0 0 1
    outer loop
      vertex -3.58376 -0.920152 6
      vertex -3.87433 -0.994759 6
      vertex -3.71911 -1.4725 6
    endloop
  endfacet
  facet normal 0 0 1
    outer loop
      vertex -4 0 6
      vertex -3.7 0 6
      vertex -3.96846 0.501332 6
    endloop
  endfacet
  facet normal 0 0 1
    outer loop
      vertex -3.67082 -0.463733 6
      vertex -3.96846 -0.501332 6
      vertex -3.87433 -0.994759 6
    endloop
  endfacet
  facet normal 0 0 1
    outer loop
      vertex -3.7 0 6
      vertex -4 0 6
      vertex -3.96846 -0.501332 6
    endloop
  endfacet
  facet normal 0 1 -0
    outer loop
      vertex 0.251162 3.99211 0
      vertex -0.251162 3.99211 6
      vertex 0.251162 3.99211 6
    endloop
  endfacet
  facet normal 0 1 0
    outer loop
      vertex -0.251162 3.99211 6
      vertex 0.251162 3.99211 0
      vertex -0.251162 3.99211 0
    endloop
  endfacet
  facet normal 0.125333 0.992115 -0
    outer loop
      vertex 0.749525 3.92915 0
      vertex 0.251162 3.99211 6
      vertex 0.749525 3.92915 6
    endloop
  endfacet
  facet normal 0.125333 0.992115 0
    outer loop
      vertex 0.251162 3.99211 6
      vertex 0.749525 3.92915 0
      vertex 0.251162 3.99211 0
    endloop
  endfacet
  facet normal -0.982287 -0.187381 0
    outer loop
      vertex 3.67082 0.463733 0.3
      vertex 3.58376 0.920152 6
      vertex 3.58376 0.920152 0.3
    endloop
  endfacet
  facet normal -0.982287 -0.187381 0
    outer loop
      vertex 3.58376 0.920152 6
      vertex 3.67082 0.463733 0.3
      vertex 3.67082 0.463733 6
    endloop
  endfacet
  facet normal 0 0 1
    outer loop
      vertex 3.67082 0.463733 0.3
      vertex 3.67082 -0.463733 0.3
      vertex 3.7 0 0.3
    endloop
  endfacet
  facet normal 0 0 1
    outer loop
      vertex 3.58376 0.920152 0.3
      vertex 3.67082 -0.463733 0.3
      vertex 3.67082 0.463733 0.3
    endloop
  endfacet
  facet normal 0 0 1
    outer loop
      vertex 3.58376 0.920152 0.3
      vertex 3.58376 -0.920152 0.3
      vertex 3.67082 -0.463733 0.3
    endloop
  endfacet
  facet normal 0 0 1
    outer loop
      vertex 3.44017 1.36206 0.3
      vertex 3.58376 -0.920152 0.3
      vertex 3.58376 0.920152 0.3
    endloop
  endfacet
  facet normal 0 0 1
    outer loop
      vertex 3.44017 1.36206 0.3
      vertex 3.44017 -1.36206 0.3
      vertex 3.58376 -0.920152 0.3
    endloop
  endfacet
  facet normal 0 0 1
    outer loop
      vertex 3.24233 1.78249 0.3
      vertex 3.44017 -1.36206 0.3
      vertex 3.44017 1.36206 0.3
    endloop
  endfacet
  facet normal 0 0 1
    outer loop
      vertex 3.24233 1.78249 0.3
      vertex 3.24233 -1.78249 0.3
      vertex 3.44017 -1.36206 0.3
    endloop
  endfacet
  facet normal 0 0 1
    outer loop
      vertex 2.99336 2.1748 0.3
      vertex 3.24233 -1.78249 0.3
      vertex 3.24233 1.78249 0.3
    endloop
  endfacet
  facet normal 0 0 1
    outer loop
      vertex 2.99336 2.1748 0.3
      vertex 2.99336 -2.1748 0.3
      vertex 3.24233 -1.78249 0.3
    endloop
  endfacet
  facet normal 0 0 1
    outer loop
      vertex 2.69718 2.53282 0.3
      vertex 2.99336 -2.1748 0.3
      vertex 2.99336 2.1748 0.3
    endloop
  endfacet
  facet normal 0 0 1
    outer loop
      vertex 2.69718 2.53282 0.3
      vertex 2.69718 -2.53282 0.3
      vertex 2.99336 -2.1748 0.3
    endloop
  endfacet
  facet normal 0 0 1
    outer loop
      vertex 2.35847 2.8509 0.3
      vertex 2.69718 -2.53282 0.3
      vertex 2.69718 2.53282 0.3
    endloop
  endfacet
  facet normal 0 0 1
    outer loop
      vertex 2.35847 2.8509 0.3
      vertex 2.35847 -2.8509 0.3
      vertex 2.69718 -2.53282 0.3
    endloop
  endfacet
  facet normal 0 0 1
    outer loop
      vertex 1.98256 3.12401 0.3
      vertex 2.35847 -2.8509 0.3
      vertex 2.35847 2.8509 0.3
    endloop
  endfacet
  facet normal 0 0 1
    outer loop
      vertex 1.98256 3.12401 0.3
      vertex 1.98256 -3.12401 0.3
      vertex 2.35847 -2.8509 0.3
    endloop
  endfacet
  facet normal 0 0 1
    outer loop
      vertex 1.57538 3.34786 0.3
      vertex 1.98256 -3.12401 0.3
      vertex 1.98256 3.12401 0.3
    endloop
  endfacet
  facet normal 0 0 1
    outer loop
      vertex 1.57538 3.34786 0.3
      vertex 1.57538 -3.34786 0.3
      vertex 1.98256 -3.12401 0.3
    endloop
  endfacet
  facet normal 0 0 1
    outer loop
      vertex 1.14336 3.51891 0.3
      vertex 1.57538 -3.34786 0.3
      vertex 1.57538 3.34786 0.3
    endloop
  endfacet
  facet normal 0 0 1
    outer loop
      vertex 1.14336 3.51891 0.3
      vertex 1.14336 -3.51891 0.3
      vertex 1.57538 -3.34786 0.3
    endloop
  endfacet
  facet normal 0 0 1
    outer loop
      vertex 0.693311 3.63446 0.3
      vertex 1.14336 -3.51891 0.3
      vertex 1.14336 3.51891 0.3
    endloop
  endfacet
  facet normal 0 0 1
    outer loop
      vertex 0.693311 3.63446 0.3
      vertex 0.693311 -3.63446 0.3
      vertex 1.14336 -3.51891 0.3
    endloop
  endfacet
  facet normal 0 0 1
    outer loop
      vertex 0.232325 3.6927 0.3
      vertex 0.693311 -3.63446 0.3
      vertex 0.693311 3.63446 0.3
    endloop
  endfacet
  facet normal 0 0 1
    outer loop
      vertex 0.232325 3.6927 0.3
      vertex 0.232325 -3.6927 0.3
      vertex 0.693311 -3.63446 0.3
    endloop
  endfacet
  facet normal -0 0 1
    outer loop
      vertex -0.232325 3.6927 0.3
      vertex 0.232325 -3.6927 0.3
      vertex 0.232325 3.6927 0.3
    endloop
  endfacet
  facet normal 0 0 1
    outer loop
      vertex -0.232325 3.6927 0.3
      vertex -0.232325 -3.6927 0.3
      vertex 0.232325 -3.6927 0.3
    endloop
  endfacet
  facet normal -0 0 1
    outer loop
      vertex -0.693311 3.63446 0.3
      vertex -0.232325 -3.6927 0.3
      vertex -0.232325 3.6927 0.3
    endloop
  endfacet
  facet normal 0 0 1
    outer loop
      vertex -0.693311 3.63446 0.3
      vertex -0.693311 -3.63446 0.3
      vertex -0.232325 -3.6927 0.3
    endloop
  endfacet
  facet normal -0 0 1
    outer loop
      vertex -1.14336 3.51891 0.3
      vertex -0.693311 -3.63446 0.3
      vertex -0.693311 3.63446 0.3
    endloop
  endfacet
  facet normal 0 0 1
    outer loop
      vertex -1.14336 3.51891 0.3
      vertex -1.14336 -3.51891 0.3
      vertex -0.693311 -3.63446 0.3
    endloop
  endfacet
  facet normal -0 0 1
    outer loop
      vertex -1.57538 3.34786 0.3
      vertex -1.14336 -3.51891 0.3
      vertex -1.14336 3.51891 0.3
    endloop
  endfacet
  facet normal 0 0 1
    outer loop
      vertex -1.57538 3.34786 0.3
      vertex -1.57538 -3.34786 0.3
      vertex -1.14336 -3.51891 0.3
    endloop
  endfacet
  facet normal -0 0 1
    outer loop
      vertex -1.98256 3.12401 0.3
      vertex -1.57538 -3.34786 0.3
      vertex -1.57538 3.34786 0.3
    endloop
  endfacet
  facet normal 0 0 1
    outer loop
      vertex -1.98256 3.12401 0.3
      vertex -1.98256 -3.12401 0.3
      vertex -1.57538 -3.34786 0.3
    endloop
  endfacet
  facet normal -0 0 1
    outer loop
      vertex -2.35847 2.8509 0.3
      vertex -1.98256 -3.12401 0.3
      vertex -1.98256 3.12401 0.3
    endloop
  endfacet
  facet normal 0 0 1
    outer loop
      vertex -2.35847 2.8509 0.3
      vertex -2.35847 -2.8509 0.3
      vertex -1.98256 -3.12401 0.3
    endloop
  endfacet
  facet normal -0 0 1
    outer loop
      vertex -2.69718 2.53282 0.3
      vertex -2.35847 -2.8509 0.3
      vertex -2.35847 2.8509 0.3
    endloop
  endfacet
  facet normal 0 0 1
    outer loop
      vertex -2.69718 2.53282 0.3
      vertex -2.69718 -2.53282 0.3
      vertex -2.35847 -2.8509 0.3
    endloop
  endfacet
  facet normal -0 0 1
    outer loop
      vertex -2.99336 2.1748 0.3
      vertex -2.69718 -2.53282 0.3
      vertex -2.69718 2.53282 0.3
    endloop
  endfacet
  facet normal 0 0 1
    outer loop
      vertex -2.99336 2.1748 0.3
      vertex -2.99336 -2.1748 0.3
      vertex -2.69718 -2.53282 0.3
    endloop
  endfacet
  facet normal -0 0 1
    outer loop
      vertex -3.24233 1.78249 0.3
      vertex -2.99336 -2.1748 0.3
      vertex -2.99336 2.1748 0.3
    endloop
  endfacet
  facet normal 0 0 1
    outer loop
      vertex -3.24233 1.78249 0.3
      vertex -3.24233 -1.78249 0.3
      vertex -2.99336 -2.1748 0.3
    endloop
  endfacet
  facet normal -0 0 1
    outer loop
      vertex -3.44017 1.36206 0.3
      vertex -3.24233 -1.78249 0.3
      vertex -3.24233 1.78249 0.3
    endloop
  endfacet
  facet normal 0 0 1
    outer loop
      vertex -3.44017 1.36206 0.3
      vertex -3.44017 -1.36206 0.3
      vertex -3.24233 -1.78249 0.3
    endloop
  endfacet
  facet normal -0 0 1
    outer loop
      vertex -3.58376 0.920152 0.3
      vertex -3.44017 -1.36206 0.3
      vertex -3.44017 1.36206 0.3
    endloop
  endfacet
  facet normal 0 0 1
    outer loop
      vertex -3.58376 0.920152 0.3
      vertex -3.58376 -0.920152 0.3
      vertex -3.44017 -1.36206 0.3
    endloop
  endfacet
  facet normal -0 0 1
    outer loop
      vertex -3.67082 0.463733 0.3
      vertex -3.58376 -0.920152 0.3
      vertex -3.58376 0.920152 0.3
    endloop
  endfacet
  facet normal 0 0 1
    outer loop
      vertex -3.67082 0.463733 0.3
      vertex -3.67082 -0.463733 0.3
      vertex -3.58376 -0.920152 0.3
    endloop
  endfacet
  facet normal 0 -0 1
    outer loop
      vertex -3.67082 -0.463733 0.3
      vertex -3.67082 0.463733 0.3
      vertex -3.7 0 0.3
    endloop
  endfacet
  facet normal -0.998027 -0.0627909 0
    outer loop
      vertex 3.7 0 0.3
      vertex 3.67082 0.463733 6
      vertex 3.67082 0.463733 0.3
    endloop
  endfacet
  facet normal -0.998027 -0.0627909 0
    outer loop
      vertex 3.67082 0.463733 6
      vertex 3.7 0 0.3
      vertex 3.7 0 6
    endloop
  endfacet
  facet normal -0.587785 -0.809017 0
    outer loop
      vertex 1.98256 3.12401 0.3
      vertex 2.35847 2.8509 6
      vertex 1.98256 3.12401 6
    endloop
  endfacet
  facet normal -0.587785 -0.809017 -0
    outer loop
      vertex 2.35847 2.8509 6
      vertex 1.98256 3.12401 0.3
      vertex 2.35847 2.8509 0.3
    endloop
  endfacet
  facet normal 0.587785 0.809017 -0
    outer loop
      vertex -1.98256 -3.12401 0.3
      vertex -2.35847 -2.8509 6
      vertex -1.98256 -3.12401 6
    endloop
  endfacet
  facet normal 0.587785 0.809017 0
    outer loop
      vertex -2.35847 -2.8509 6
      vertex -1.98256 -3.12401 0.3
      vertex -2.35847 -2.8509 0.3
    endloop
  endfacet
  facet normal -0.951056 0.309018 0
    outer loop
      vertex 3.44017 -1.36206 0.3
      vertex 3.58376 -0.920152 6
      vertex 3.58376 -0.920152 0.3
    endloop
  endfacet
  facet normal -0.951056 0.309018 0
    outer loop
      vertex 3.58376 -0.920152 6
      vertex 3.44017 -1.36206 0.3
      vertex 3.44017 -1.36206 6
    endloop
  endfacet
  facet normal 0.248691 -0.968583 0
    outer loop
      vertex -1.14336 3.51891 0.3
      vertex -0.693311 3.63446 6
      vertex -1.14336 3.51891 6
    endloop
  endfacet
  facet normal 0.248691 -0.968583 0
    outer loop
      vertex -0.693311 3.63446 6
      vertex -1.14336 3.51891 0.3
      vertex -0.693311 3.63446 0.3
    endloop
  endfacet
  facet normal 0.998027 0.0627909 0
    outer loop
      vertex -3.67082 -0.463733 6
      vertex -3.7 0 0.3
      vertex -3.7 0 6
    endloop
  endfacet
  facet normal 0.998027 0.0627909 0
    outer loop
      vertex -3.7 0 0.3
      vertex -3.67082 -0.463733 6
      vertex -3.67082 -0.463733 0.3
    endloop
  endfacet
  facet normal -0.844328 -0.535827 0
    outer loop
      vertex 3.24233 1.78249 0.3
      vertex 2.99336 2.1748 6
      vertex 2.99336 2.1748 0.3
    endloop
  endfacet
  facet normal -0.844328 -0.535827 0
    outer loop
      vertex 2.99336 2.1748 6
      vertex 3.24233 1.78249 0.3
      vertex 3.24233 1.78249 6
    endloop
  endfacet
  facet normal -0.982287 0.187381 0
    outer loop
      vertex 3.58376 -0.920152 0.3
      vertex 3.67082 -0.463733 6
      vertex 3.67082 -0.463733 0.3
    endloop
  endfacet
  facet normal -0.982287 0.187381 0
    outer loop
      vertex 3.67082 -0.463733 6
      vertex 3.58376 -0.920152 0.3
      vertex 3.58376 -0.920152 6
    endloop
  endfacet
  facet normal 0.982287 0.187381 0
    outer loop
      vertex -3.58376 -0.920152 6
      vertex -3.67082 -0.463733 0.3
      vertex -3.67082 -0.463733 6
    endloop
  endfacet
  facet normal 0.982287 0.187381 0
    outer loop
      vertex -3.67082 -0.463733 0.3
      vertex -3.58376 -0.920152 6
      vertex -3.58376 -0.920152 0.3
    endloop
  endfacet
  facet normal 0.248691 0.968583 -0
    outer loop
      vertex -0.693311 -3.63446 0.3
      vertex -1.14336 -3.51891 6
      vertex -0.693311 -3.63446 6
    endloop
  endfacet
  facet normal 0.248691 0.968583 0
    outer loop
      vertex -1.14336 -3.51891 6
      vertex -0.693311 -3.63446 0.3
      vertex -1.14336 -3.51891 0.3
    endloop
  endfacet
  facet normal 0.125333 0.992115 -0
    outer loop
      vertex -0.232325 -3.6927 0.3
      vertex -0.693311 -3.63446 6
      vertex -0.232325 -3.6927 6
    endloop
  endfacet
  facet normal 0.125333 0.992115 0
    outer loop
      vertex -0.693311 -3.63446 6
      vertex -0.232325 -3.6927 0.3
      vertex -0.693311 -3.63446 0.3
    endloop
  endfacet
  facet normal -0.125333 0.992115 0
    outer loop
      vertex 0.693311 -3.63446 0.3
      vertex 0.232325 -3.6927 6
      vertex 0.693311 -3.63446 6
    endloop
  endfacet
  facet normal -0.125333 0.992115 0
    outer loop
      vertex 0.232325 -3.6927 6
      vertex 0.693311 -3.63446 0.3
      vertex 0.232325 -3.6927 0.3
    endloop
  endfacet
  facet normal -0.770513 0.637424 0
    outer loop
      vertex 2.69718 -2.53282 0.3
      vertex 2.99336 -2.1748 6
      vertex 2.99336 -2.1748 0.3
    endloop
  endfacet
  facet normal -0.770513 0.637424 0
    outer loop
      vertex 2.99336 -2.1748 6
      vertex 2.69718 -2.53282 0.3
      vertex 2.69718 -2.53282 6
    endloop
  endfacet
  facet normal 0.481754 -0.876307 0
    outer loop
      vertex -1.98256 3.12401 0.3
      vertex -1.57538 3.34786 6
      vertex -1.98256 3.12401 6
    endloop
  endfacet
  facet normal 0.481754 -0.876307 0
    outer loop
      vertex -1.57538 3.34786 6
      vertex -1.98256 3.12401 0.3
      vertex -1.57538 3.34786 0.3
    endloop
  endfacet
  facet normal 0.587785 -0.809017 0
    outer loop
      vertex -2.35847 2.8509 0.3
      vertex -1.98256 3.12401 6
      vertex -2.35847 2.8509 6
    endloop
  endfacet
  facet normal 0.587785 -0.809017 0
    outer loop
      vertex -1.98256 3.12401 6
      vertex -2.35847 2.8509 0.3
      vertex -1.98256 3.12401 0.3
    endloop
  endfacet
  facet normal 0.844328 -0.535827 0
    outer loop
      vertex -3.24233 1.78249 6
      vertex -2.99336 2.1748 0.3
      vertex -2.99336 2.1748 6
    endloop
  endfacet
  facet normal 0.844328 -0.535827 0
    outer loop
      vertex -2.99336 2.1748 0.3
      vertex -3.24233 1.78249 6
      vertex -3.24233 1.78249 0.3
    endloop
  endfacet
  facet normal 0.951056 -0.309018 0
    outer loop
      vertex -3.58376 0.920152 6
      vertex -3.44017 1.36206 0.3
      vertex -3.44017 1.36206 6
    endloop
  endfacet
  facet normal 0.951056 -0.309018 0
    outer loop
      vertex -3.44017 1.36206 0.3
      vertex -3.58376 0.920152 6
      vertex -3.58376 0.920152 0.3
    endloop
  endfacet
  facet normal -0.904827 -0.425779 0
    outer loop
      vertex 3.44017 1.36206 0.3
      vertex 3.24233 1.78249 6
      vertex 3.24233 1.78249 0.3
    endloop
  endfacet
  facet normal -0.904827 -0.425779 0
    outer loop
      vertex 3.24233 1.78249 6
      vertex 3.44017 1.36206 0.3
      vertex 3.44017 1.36206 6
    endloop
  endfacet
  facet normal -0.248691 -0.968583 0
    outer loop
      vertex 0.693311 3.63446 0.3
      vertex 1.14336 3.51891 6
      vertex 0.693311 3.63446 6
    endloop
  endfacet
  facet normal -0.248691 -0.968583 -0
    outer loop
      vertex 1.14336 3.51891 6
      vertex 0.693311 3.63446 0.3
      vertex 1.14336 3.51891 0.3
    endloop
  endfacet
  facet normal -0.481754 -0.876307 0
    outer loop
      vertex 1.57538 3.34786 0.3
      vertex 1.98256 3.12401 6
      vertex 1.57538 3.34786 6
    endloop
  endfacet
  facet normal -0.481754 -0.876307 -0
    outer loop
      vertex 1.98256 3.12401 6
      vertex 1.57538 3.34786 0.3
      vertex 1.98256 3.12401 0.3
    endloop
  endfacet
  facet normal 0.125333 -0.992115 0
    outer loop
      vertex -0.693311 3.63446 0.3
      vertex -0.232325 3.6927 6
      vertex -0.693311 3.63446 6
    endloop
  endfacet
  facet normal 0.125333 -0.992115 0
    outer loop
      vertex -0.232325 3.6927 6
      vertex -0.693311 3.63446 0.3
      vertex -0.232325 3.6927 0.3
    endloop
  endfacet
  facet normal 0.951056 0.309018 0
    outer loop
      vertex -3.44017 -1.36206 6
      vertex -3.58376 -0.920152 0.3
      vertex -3.58376 -0.920152 6
    endloop
  endfacet
  facet normal 0.951056 0.309018 0
    outer loop
      vertex -3.58376 -0.920152 0.3
      vertex -3.44017 -1.36206 6
      vertex -3.44017 -1.36206 0.3
    endloop
  endfacet
  facet normal 0.684547 0.728969 -0
    outer loop
      vertex -2.35847 -2.8509 0.3
      vertex -2.69718 -2.53282 6
      vertex -2.35847 -2.8509 6
    endloop
  endfacet
  facet normal 0.684547 0.728969 0
    outer loop
      vertex -2.69718 -2.53282 6
      vertex -2.35847 -2.8509 0.3
      vertex -2.69718 -2.53282 0.3
    endloop
  endfacet
  facet normal 0.904827 0.425779 0
    outer loop
      vertex -3.24233 -1.78249 6
      vertex -3.44017 -1.36206 0.3
      vertex -3.44017 -1.36206 6
    endloop
  endfacet
  facet normal 0.904827 0.425779 0
    outer loop
      vertex -3.44017 -1.36206 0.3
      vertex -3.24233 -1.78249 6
      vertex -3.24233 -1.78249 0.3
    endloop
  endfacet
  facet normal 0.368124 0.929777 -0
    outer loop
      vertex -1.14336 -3.51891 0.3
      vertex -1.57538 -3.34786 6
      vertex -1.14336 -3.51891 6
    endloop
  endfacet
  facet normal 0.368124 0.929777 0
    outer loop
      vertex -1.57538 -3.34786 6
      vertex -1.14336 -3.51891 0.3
      vertex -1.57538 -3.34786 0.3
    endloop
  endfacet
  facet normal -0.248691 0.968583 0
    outer loop
      vertex 1.14336 -3.51891 0.3
      vertex 0.693311 -3.63446 6
      vertex 1.14336 -3.51891 6
    endloop
  endfacet
  facet normal -0.248691 0.968583 0
    outer loop
      vertex 0.693311 -3.63446 6
      vertex 1.14336 -3.51891 0.3
      vertex 0.693311 -3.63446 0.3
    endloop
  endfacet
  facet normal -0.684547 0.728969 0
    outer loop
      vertex 2.69718 -2.53282 0.3
      vertex 2.35847 -2.8509 6
      vertex 2.69718 -2.53282 6
    endloop
  endfacet
  facet normal -0.684547 0.728969 0
    outer loop
      vertex 2.35847 -2.8509 6
      vertex 2.69718 -2.53282 0.3
      vertex 2.35847 -2.8509 0.3
    endloop
  endfacet
  facet normal -0.481754 0.876307 0
    outer loop
      vertex 1.98256 -3.12401 0.3
      vertex 1.57538 -3.34786 6
      vertex 1.98256 -3.12401 6
    endloop
  endfacet
  facet normal -0.481754 0.876307 0
    outer loop
      vertex 1.57538 -3.34786 6
      vertex 1.98256 -3.12401 0.3
      vertex 1.57538 -3.34786 0.3
    endloop
  endfacet
  facet normal -0.904827 0.425779 0
    outer loop
      vertex 3.24233 -1.78249 0.3
      vertex 3.44017 -1.36206 6
      vertex 3.44017 -1.36206 0.3
    endloop
  endfacet
  facet normal -0.904827 0.425779 0
    outer loop
      vertex 3.44017 -1.36206 6
      vertex 3.24233 -1.78249 0.3
      vertex 3.24233 -1.78249 6
    endloop
  endfacet
  facet normal 0.368124 -0.929777 0
    outer loop
      vertex -1.57538 3.34786 0.3
      vertex -1.14336 3.51891 6
      vertex -1.57538 3.34786 6
    endloop
  endfacet
  facet normal 0.368124 -0.929777 0
    outer loop
      vertex -1.14336 3.51891 6
      vertex -1.57538 3.34786 0.3
      vertex -1.14336 3.51891 0.3
    endloop
  endfacet
  facet normal 0.770513 -0.637424 0
    outer loop
      vertex -2.99336 2.1748 6
      vertex -2.69718 2.53282 0.3
      vertex -2.69718 2.53282 6
    endloop
  endfacet
  facet normal 0.770513 -0.637424 0
    outer loop
      vertex -2.69718 2.53282 0.3
      vertex -2.99336 2.1748 6
      vertex -2.99336 2.1748 0.3
    endloop
  endfacet
  facet normal 0.684547 -0.728969 0
    outer loop
      vertex -2.69718 2.53282 0.3
      vertex -2.35847 2.8509 6
      vertex -2.69718 2.53282 6
    endloop
  endfacet
  facet normal 0.684547 -0.728969 0
    outer loop
      vertex -2.35847 2.8509 6
      vertex -2.69718 2.53282 0.3
      vertex -2.35847 2.8509 0.3
    endloop
  endfacet
  facet normal 0.982287 -0.187381 0
    outer loop
      vertex -3.67082 0.463733 6
      vertex -3.58376 0.920152 0.3
      vertex -3.58376 0.920152 6
    endloop
  endfacet
  facet normal 0.982287 -0.187381 0
    outer loop
      vertex -3.58376 0.920152 0.3
      vertex -3.67082 0.463733 6
      vertex -3.67082 0.463733 0.3
    endloop
  endfacet
  facet normal 0.998027 -0.0627909 0
    outer loop
      vertex -3.7 0 6
      vertex -3.67082 0.463733 0.3
      vertex -3.67082 0.463733 6
    endloop
  endfacet
  facet normal 0.998027 -0.0627909 0
    outer loop
      vertex -3.67082 0.463733 0.3
      vertex -3.7 0 6
      vertex -3.7 0 0.3
    endloop
  endfacet
  facet normal 0.904827 -0.425779 0
    outer loop
      vertex -3.44017 1.36206 6
      vertex -3.24233 1.78249 0.3
      vertex -3.24233 1.78249 6
    endloop
  endfacet
  facet normal 0.904827 -0.425779 0
    outer loop
      vertex -3.24233 1.78249 0.3
      vertex -3.44017 1.36206 6
      vertex -3.44017 1.36206 0.3
    endloop
  endfacet
  facet normal -0.770513 -0.637424 0
    outer loop
      vertex 2.99336 2.1748 0.3
      vertex 2.69718 2.53282 6
      vertex 2.69718 2.53282 0.3
    endloop
  endfacet
  facet normal -0.770513 -0.637424 0
    outer loop
      vertex 2.69718 2.53282 6
      vertex 2.99336 2.1748 0.3
      vertex 2.99336 2.1748 6
    endloop
  endfacet
  facet normal -0.684547 -0.728969 0
    outer loop
      vertex 2.35847 2.8509 0.3
      vertex 2.69718 2.53282 6
      vertex 2.35847 2.8509 6
    endloop
  endfacet
  facet normal -0.684547 -0.728969 -0
    outer loop
      vertex 2.69718 2.53282 6
      vertex 2.35847 2.8509 0.3
      vertex 2.69718 2.53282 0.3
    endloop
  endfacet
  facet normal -0.951056 -0.309018 0
    outer loop
      vertex 3.58376 0.920152 0.3
      vertex 3.44017 1.36206 6
      vertex 3.44017 1.36206 0.3
    endloop
  endfacet
  facet normal -0.951056 -0.309018 0
    outer loop
      vertex 3.44017 1.36206 6
      vertex 3.58376 0.920152 0.3
      vertex 3.58376 0.920152 6
    endloop
  endfacet
  facet normal -0.368124 -0.929777 0
    outer loop
      vertex 1.14336 3.51891 0.3
      vertex 1.57538 3.34786 6
      vertex 1.14336 3.51891 6
    endloop
  endfacet
  facet normal -0.368124 -0.929777 -0
    outer loop
      vertex 1.57538 3.34786 6
      vertex 1.14336 3.51891 0.3
      vertex 1.57538 3.34786 0.3
    endloop
  endfacet
  facet normal 0.844328 0.535827 0
    outer loop
      vertex -2.99336 -2.1748 6
      vertex -3.24233 -1.78249 0.3
      vertex -3.24233 -1.78249 6
    endloop
  endfacet
  facet normal 0.844328 0.535827 0
    outer loop
      vertex -3.24233 -1.78249 0.3
      vertex -2.99336 -2.1748 6
      vertex -2.99336 -2.1748 0.3
    endloop
  endfacet
  facet normal 0.481754 0.876307 -0
    outer loop
      vertex -1.57538 -3.34786 0.3
      vertex -1.98256 -3.12401 6
      vertex -1.57538 -3.34786 6
    endloop
  endfacet
  facet normal 0.481754 0.876307 0
    outer loop
      vertex -1.98256 -3.12401 6
      vertex -1.57538 -3.34786 0.3
      vertex -1.98256 -3.12401 0.3
    endloop
  endfacet
  facet normal 0 1 -0
    outer loop
      vertex 0.232325 -3.6927 0.3
      vertex -0.232325 -3.6927 6
      vertex 0.232325 -3.6927 6
    endloop
  endfacet
  facet normal 0 1 0
    outer loop
      vertex -0.232325 -3.6927 6
      vertex 0.232325 -3.6927 0.3
      vertex -0.232325 -3.6927 0.3
    endloop
  endfacet
  facet normal -0.998027 0.0627909 0
    outer loop
      vertex 3.67082 -0.463733 0.3
      vertex 3.7 0 6
      vertex 3.7 0 0.3
    endloop
  endfacet
  facet normal -0.998027 0.0627909 0
    outer loop
      vertex 3.7 0 6
      vertex 3.67082 -0.463733 0.3
      vertex 3.67082 -0.463733 6
    endloop
  endfacet
  facet normal -0.368124 0.929777 0
    outer loop
      vertex 1.57538 -3.34786 0.3
      vertex 1.14336 -3.51891 6
      vertex 1.57538 -3.34786 6
    endloop
  endfacet
  facet normal -0.368124 0.929777 0
    outer loop
      vertex 1.14336 -3.51891 6
      vertex 1.57538 -3.34786 0.3
      vertex 1.14336 -3.51891 0.3
    endloop
  endfacet
  facet normal -0.587785 0.809017 0
    outer loop
      vertex 2.35847 -2.8509 0.3
      vertex 1.98256 -3.12401 6
      vertex 2.35847 -2.8509 6
    endloop
  endfacet
  facet normal -0.587785 0.809017 0
    outer loop
      vertex 1.98256 -3.12401 6
      vertex 2.35847 -2.8509 0.3
      vertex 1.98256 -3.12401 0.3
    endloop
  endfacet
  facet normal -0.844328 0.535827 0
    outer loop
      vertex 2.99336 -2.1748 0.3
      vertex 3.24233 -1.78249 6
      vertex 3.24233 -1.78249 0.3
    endloop
  endfacet
  facet normal -0.844328 0.535827 0
    outer loop
      vertex 3.24233 -1.78249 6
      vertex 2.99336 -2.1748 0.3
      vertex 2.99336 -2.1748 6
    endloop
  endfacet
  facet normal 0 -1 0
    outer loop
      vertex -0.232325 3.6927 0.3
      vertex 0.232325 3.6927 6
      vertex -0.232325 3.6927 6
    endloop
  endfacet
  facet normal 0 -1 -0
    outer loop
      vertex 0.232325 3.6927 6
      vertex -0.232325 3.6927 0.3
      vertex 0.232325 3.6927 0.3
    endloop
  endfacet
  facet normal -0.125333 -0.992115 0
    outer loop
      vertex 0.232325 3.6927 0.3
      vertex 0.693311 3.63446 6
      vertex 0.232325 3.6927 6
    endloop
  endfacet
  facet normal -0.125333 -0.992115 -0
    outer loop
      vertex 0.693311 3.63446 6
      vertex 0.232325 3.6927 0.3
      vertex 0.693311 3.63446 0.3
    endloop
  endfacet
  facet normal 0.770513 0.637424 0
    outer loop
      vertex -2.69718 -2.53282 6
      vertex -2.99336 -2.1748 0.3
      vertex -2.99336 -2.1748 6
    endloop
  endfacet
  facet normal 0.770513 0.637424 0
    outer loop
      vertex -2.99336 -2.1748 0.3
      vertex -2.69718 -2.53282 6
      vertex -2.69718 -2.53282 0.3
    endloop
  endfacet
endsolid OpenSCAD_Model
