solid OpenSCAD_Model
  facet normal 0 0 -1
    outer loop
      vertex -2 -2 0
      vertex 2 2 0
      vertex 2 -2 0
    endloop
  endfacet
  facet normal -0 0 -1
    outer loop
      vertex 2 2 0
      vertex -2 -2 0
      vertex -2 2 0
    endloop
  endfacet
  facet normal 0 0.948683 -0.316228
    outer loop
      vertex 2 2 0
      vertex -4 4 6
      vertex 4 4 6
    endloop
  endfacet
  facet normal 0 0.948683 -0.316228
    outer loop
      vertex -4 4 6
      vertex 2 2 0
      vertex -2 2 0
    endloop
  endfacet
  facet normal -0.948683 0 -0.316228
    outer loop
      vertex -2 -2 0
      vertex -4 4 6
      vertex -2 2 0
    endloop
  endfacet
  facet normal -0.948683 -0 -0.316228
    outer loop
      vertex -4 4 6
      vertex -2 -2 0
      vertex -4 -4 6
    endloop
  endfacet
  facet normal 0 0 1
    outer loop
      vertex 4 4 6
      vertex 3.66667 3.66667 6
      vertex 4 -4 6
    endloop
  endfacet
  facet normal 0 0 1
    outer loop
      vertex 4 4 6
      vertex -3.66667 3.66667 6
      vertex 3.66667 3.66667 6
    endloop
  endfacet
  facet normal 0 0 1
    outer loop
      vertex -3.66667 3.66667 6
      vertex -4 4 6
      vertex -3.66667 -3.66667 6
    endloop
  endfacet
  facet normal -0 0 1
    outer loop
      vertex -4 4 6
      vertex -3.66667 3.66667 6
      vertex 4 4 6
    endloop
  endfacet
  facet normal -0 0 1
    outer loop
      vertex 3.66667 -3.66667 6
      vertex 4 -4 6
      vertex 3.66667 3.66667 6
    endloop
  endfacet
  facet normal -0 0 1
    outer loop
      vertex -3.66667 -3.66667 6
      vertex 4 -4 6
      vertex 3.66667 -3.66667 6
    endloop
  endfacet
  facet normal 0 0 1
    outer loop
      vertex -3.66667 -3.66667 6
      vertex -4 -4 6
      vertex 4 -4 6
    endloop
  endfacet
  facet normal 0 0 1
    outer loop
      vertex -4 -4 6
      vertex -3.66667 -3.66667 6
      vertex -4 4 6
    endloop
  endfacet
  facet normal 0.948683 0 -0.316228
    outer loop
      vertex 4 4 6
      vertex 2 -2 0
      vertex 2 2 0
    endloop
  endfacet
  facet normal 0.948683 0 -0.316228
    outer loop
      vertex 2 -2 0
      vertex 4 4 6
      vertex 4 -4 6
    endloop
  endfacet
  facet normal 0 -0.948683 -0.316228
    outer loop
      vertex -2 -2 0
      vertex 4 -4 6
      vertex -4 -4 6
    endloop
  endfacet
  facet normal 0 -0.948683 -0.316228
    outer loop
      vertex 4 -4 6
      vertex -2 -2 0
      vertex 2 -2 0
    endloop
  endfacet
  facet normal -0 0 1
    outer loop
      vertex -2 2 1
      vertex 2 -2 1
      vertex 2 2 1
    endloop
  endfacet
  facet normal 0 0 1
    outer loop
      vertex 2 -2 1
      vertex -2 2 1
      vertex -2 -2 1
    endloop
  endfacet
  facet normal 0 -0.948683 0.316228
    outer loop
      vertex -2 2 1
      vertex 3.66667 3.66667 6
      vertex -3.66667 3.66667 6
    endloop
  endfacet
  facet normal 0 -0.948683 0.316228
    outer loop
      vertex 3.66667 3.66667 6
      vertex -2 2 1
      vertex 2 2 1
    endloop
  endfacet
  facet normal 0.948683 0 0.316228
    outer loop
      vertex -3.66667 3.66667 6
      vertex -2 -2 1
      vertex -2 2 1
    endloop
  endfacet
  facet normal 0.948683 0 0.316228
    outer loop
      vertex -2 -2 1
      vertex -3.66667 3.66667 6
      vertex -3.66667 -3.66667 6
    endloop
  endfacet
  facet normal 0 0.948683 0.316228
    outer loop
      vertex 2 -2 1
      vertex -3.66667 -3.66667 6
      vertex 3.66667 -3.66667 6
    endloop
  endfacet
  facet normal 0 0.948683 0.316228
    outer loop
      vertex -3.66667 -3.66667 6
      vertex 2 -2 1
      vertex -2 -2 1
    endloop
  endfacet
  facet normal -0.948683 0 0.316228
    outer loop
      vertex 2 -2 1
      vertex 3.66667 3.66667 6
      vertex 2 2 1
    endloop
  endfacet
  facet normal -0.948683 0 0.316228
    outer loop
      vertex 3.66667 3.66667 6
      vertex 2 -2 1
      vertex 3.66667 -3.66667 6
    endloop
  endfacet
endsolid OpenSCAD_Model
