solid OpenSCAD_Model
  facet normal 0 0 -1
    outer loop
      vertex -2 -1 -2.5
      vertex 2 1 -2.5
      vertex 2 -1 -2.5
    endloop
  endfacet
  facet normal -0 0 -1
    outer loop
      vertex 2 1 -2.5
      vertex -2 -1 -2.5
      vertex -2 1 -2.5
    endloop
  endfacet
  facet normal 0 0.980581 -0.196116
    outer loop
      vertex 2 1 -2.5
      vertex -4 2 2.5
      vertex 4 2 2.5
    endloop
  endfacet
  facet normal 0 0.980581 -0.196116
    outer loop
      vertex -4 2 2.5
      vertex 2 1 -2.5
      vertex -2 1 -2.5
    endloop
  endfacet
  facet normal -0.928477 0 -0.371391
    outer loop
      vertex -2 -1 -2.5
      vertex -4 2 2.5
      vertex -2 1 -2.5
    endloop
  endfacet
  facet normal -0.928477 -0 -0.371391
    outer loop
      vertex -4 2 2.5
      vertex -2 -1 -2.5
      vertex -4 -2 2.5
    endloop
  endfacet
  facet normal 0 -0.980581 -0.196116
    outer loop
      vertex -2 -1 -2.5
      vertex 4 -2 2.5
      vertex -4 -2 2.5
    endloop
  endfacet
  facet normal 0 -0.980581 -0.196116
    outer loop
      vertex 4 -2 2.5
      vertex -2 -1 -2.5
      vertex 2 -1 -2.5
    endloop
  endfacet
  facet normal 0 0 1
    outer loop
      vertex 4 2 2.5
      vertex 3.6 1.8 2.5
      vertex 4 -2 2.5
    endloop
  endfacet
  facet normal 0 0 1
    outer loop
      vertex 4 2 2.5
      vertex -3.6 1.8 2.5
      vertex 3.6 1.8 2.5
    endloop
  endfacet
  facet normal 0 0 1
    outer loop
      vertex -3.6 1.8 2.5
      vertex -4 2 2.5
      vertex -3.6 -1.8 2.5
    endloop
  endfacet
  facet normal -0 0 1
    outer loop
      vertex -4 2 2.5
      vertex -3.6 1.8 2.5
      vertex 4 2 2.5
    endloop
  endfacet
  facet normal -0 0 1
    outer loop
      vertex 3.6 -1.8 2.5
      vertex 4 -2 2.5
      vertex 3.6 1.8 2.5
    endloop
  endfacet
  facet normal -0 0 1
    outer loop
      vertex -3.6 -1.8 2.5
      vertex 4 -2 2.5
      vertex 3.6 -1.8 2.5
    endloop
  endfacet
  facet normal 0 0 1
    outer loop
      vertex -3.6 -1.8 2.5
      vertex -4 -2 2.5
      vertex 4 -2 2.5
    endloop
  endfacet
  facet normal 0 0 1
    outer loop
      vertex -4 -2 2.5
      vertex -3.6 -1.8 2.5
      vertex -4 2 2.5
    endloop
  endfacet
  facet normal 0.928477 0 -0.371391
    outer loop
      vertex 4 2 2.5
      vertex 2 -1 -2.5
      vertex 2 1 -2.5
    endloop
  endfacet
  facet normal 0.928477 0 -0.371391
    outer loop
      vertex 2 -1 -2.5
      vertex 4 2 2.5
      vertex 4 -2 2.5
    endloop
  endfacet
  facet normal -0 0 1
    outer loop
      vertex -2 1 -1.5
      vertex 2 -1 -1.5
      vertex 2 1 -1.5
    endloop
  endfacet
  facet normal 0 0 1
    outer loop
      vertex 2 -1 -1.5
      vertex -2 1 -1.5
      vertex -2 -1 -1.5
    endloop
  endfacet
  facet normal 0 -0.980581 0.196116
    outer loop
      vertex -2 1 -1.5
      vertex 3.6 1.8 2.5
      vertex -3.6 1.8 2.5
    endloop
  endfacet
  facet normal 0 -0.980581 0.196116
    outer loop
      vertex 3.6 1.8 2.5
      vertex -2 1 -1.5
      vertex 2 1 -1.5
    endloop
  endfacet
  facet normal 0.928477 0 0.371391
    outer loop
      vertex -3.6 1.8 2.5
      vertex -2 -1 -1.5
      vertex -2 1 -1.5
    endloop
  endfacet
  facet normal 0.928477 0 0.371391
    outer loop
      vertex -2 -1 -1.5
      vertex -3.6 1.8 2.5
      vertex -3.6 -1.8 2.5
    endloop
  endfacet
  facet normal 0 0.980581 0.196116
    outer loop
      vertex 2 -1 -1.5
      vertex -3.6 -1.8 2.5
      vertex 3.6 -1.8 2.5
    endloop
  endfacet
  facet normal 0 0.980581 0.196116
    outer loop
      vertex -3.6 -1.8 2.5
      vertex 2 -1 -1.5
      vertex -2 -1 -1.5
    endloop
  endfacet
  facet normal -0.928477 0 0.371391
    outer loop
      vertex 2 -1 -1.5
      vertex 3.6 1.8 2.5
      vertex 2 1 -1.5
    endloop
  endfacet
  facet normal -0.928477 0 0.371391
    outer loop
      vertex 3.6 1.8 2.5
      vertex 2 -1 -1.5
      vertex 3.6 -1.8 2.5
    endloop
  endfacet
endsolid OpenSCAD_Model
