solid OpenSCAD_Model
  facet normal 0 0 -1
    outer loop
      vertex -2 -2 -0.5
      vertex 2 2 -0.5
      vertex 2 -2 -0.5
    endloop
  endfacet
  facet normal -0 0 -1
    outer loop
      vertex 2 2 -0.5
      vertex -2 -2 -0.5
      vertex -2 2 -0.5
    endloop
  endfacet
  facet normal 0 0.928477 -0.371391
    outer loop
      vertex 2 2 -0.5
      vertex -4 4 4.5
      vertex 4 4 4.5
    endloop
  endfacet
  facet normal 0 0.928477 -0.371391
    outer loop
      vertex -4 4 4.5
      vertex 2 2 -0.5
      vertex -2 2 -0.5
    endloop
  endfacet
  facet normal -0.928477 0 -0.371391
    outer loop
      vertex -2 -2 -0.5
      vertex -4 4 4.5
      vertex -2 2 -0.5
    endloop
  endfacet
  facet normal -0.928477 -0 -0.371391
    outer loop
      vertex -4 4 4.5
      vertex -2 -2 -0.5
      vertex -4 -4 4.5
    endloop
  endfacet
  facet normal 0 -0.928477 -0.371391
    outer loop
      vertex -2 -2 -0.5
      vertex 4 -4 4.5
      vertex -4 -4 4.5
    endloop
  endfacet
  facet normal 0 -0.928477 -0.371391
    outer loop
      vertex 4 -4 4.5
      vertex -2 -2 -0.5
      vertex 2 -2 -0.5
    endloop
  endfacet
  facet normal 0 0 1
    outer loop
      vertex 4 4 4.5
      vertex 3.6 3.6 4.5
      vertex 4 -4 4.5
    endloop
  endfacet
  facet normal 0 0 1
    outer loop
      vertex 4 4 4.5
      vertex -3.6 3.6 4.5
      vertex 3.6 3.6 4.5
    endloop
  endfacet
  facet normal 0 0 1
    outer loop
      vertex -3.6 3.6 4.5
      vertex -4 4 4.5
      vertex -3.6 -3.6 4.5
    endloop
  endfacet
  facet normal -0 0 1
    outer loop
      vertex -4 4 4.5
      vertex -3.6 3.6 4.5
      vertex 4 4 4.5
    endloop
  endfacet
  facet normal -0 0 1
    outer loop
      vertex 3.6 -3.6 4.5
      vertex 4 -4 4.5
      vertex 3.6 3.6 4.5
    endloop
  endfacet
  facet normal -0 0 1
    outer loop
      vertex -3.6 -3.6 4.5
      vertex 4 -4 4.5
      vertex 3.6 -3.6 4.5
    endloop
  endfacet
  facet normal 0 0 1
    outer loop
      vertex -3.6 -3.6 4.5
      vertex -4 -4 4.5
      vertex 4 -4 4.5
    endloop
  endfacet
  facet normal 0 0 1
    outer loop
      vertex -4 -4 4.5
      vertex -3.6 -3.6 4.5
      vertex -4 4 4.5
    endloop
  endfacet
  facet normal 0.928477 0 -0.371391
    outer loop
      vertex 4 4 4.5
      vertex 2 -2 -0.5
      vertex 2 2 -0.5
    endloop
  endfacet
  facet normal 0.928477 0 -0.371391
    outer loop
      vertex 2 -2 -0.5
      vertex 4 4 4.5
      vertex 4 -4 4.5
    endloop
  endfacet
  facet normal -0 0 1
    outer loop
      vertex -2 2 0.5
      vertex 2 -2 0.5
      vertex 2 2 0.5
    endloop
  endfacet
  facet normal 0 0 1
    outer loop
      vertex 2 -2 0.5
      vertex -2 2 0.5
      vertex -2 -2 0.5
    endloop
  endfacet
  facet normal 0 -0.928477 0.371391
    outer loop
      vertex -2 2 0.5
      vertex 3.6 3.6 4.5
      vertex -3.6 3.6 4.5
    endloop
  endfacet
  facet normal 0 -0.928477 0.371391
    outer loop
      vertex 3.6 3.6 4.5
      vertex -2 2 0.5
      vertex 2 2 0.5
    endloop
  endfacet
  facet normal 0.928477 0 0.371391
    outer loop
      vertex -3.6 3.6 4.5
      vertex -2 -2 0.5
      vertex -2 2 0.5
    endloop
  endfacet
  facet normal 0.928477 0 0.371391
    outer loop
      vertex -2 -2 0.5
      vertex -3.6 3.6 4.5
      vertex -3.6 -3.6 4.5
    endloop
  endfacet
  facet normal 0 0.928477 0.371391
    outer loop
      vertex 2 -2 0.5
      vertex -3.6 -3.6 4.5
      vertex 3.6 -3.6 4.5
    endloop
  endfacet
  facet normal 0 0.928477 0.371391
    outer loop
      vertex -3.6 -3.6 4.5
      vertex 2 -2 0.5
      vertex -2 -2 0.5
    endloop
  endfacet
  facet normal -0.928477 0 0.371391
    outer loop
      vertex 2 -2 0.5
      vertex 3.6 3.6 4.5
      vertex 2 2 0.5
    endloop
  endfacet
  facet normal -0.928477 0 0.371391
    outer loop
      vertex 3.6 3.6 4.5
      vertex 2 -2 0.5
      vertex 3.6 -3.6 4.5
    endloop
  endfacet
endsolid OpenSCAD_Model
