solid OpenSCAD_Model
  facet normal 0 0 -1
    outer loop
      vertex -4 -4 0
      vertex 4 4 0
      vertex 4 -4 0
    endloop
  endfacet
  facet normal -0 0 -1
    outer loop
      vertex 4 4 0
      vertex -4 -4 0
      vertex -4 4 0
    endloop
  endfacet
  facet normal 1 -0 0
    outer loop
      vertex 4 -4 8
      vertex 4 4 0
      vertex 4 4 8
    endloop
  endfacet
  facet normal 1 0 0
    outer loop
      vertex 4 4 0
      vertex 4 -4 8
      vertex 4 -4 0
    endloop
  endfacet
  facet normal -1 0 0
    outer loop
      vertex -4 -4 0
      vertex -4 4 8
      vertex -4 4 0
    endloop
  endfacet
  facet normal -1 -0 0
    outer loop
      vertex -4 4 8
      vertex -4 -4 0
      vertex -4 -4 8
    endloop
  endfacet
  facet normal 0 -1 0
    outer loop
      vertex -4 -4 0
      vertex 4 -4 8
      vertex -4 -4 8
    endloop
  endfacet
  facet normal 0 -1 -0
    outer loop
      vertex 4 -4 8
      vertex -4 -4 0
      vertex 4 -4 0
    endloop
  endfacet
  facet normal 0 1 -0
    outer loop
      vertex 4 4 0
      vertex -4 4 8
      vertex 4 4 8
    endloop
  endfacet
  facet normal 0 1 0
    outer loop
      vertex -4 4 8
      vertex 4 4 0
      vertex -4 4 0
    endloop
  endfacet
  facet normal 0 0 1
    outer loop
      vertex 4 4 8
      vertex 3.6 3.6 8
      vertex 4 -4 8
    endloop
  endfacet
  facet normal 0 0 1
    outer loop
      vertex 4 4 8
      vertex -3.6 3.6 8
      vertex 3.6 3.6 8
    endloop
  endfacet
  facet normal 0 0 1
    outer loop
      vertex -3.6 3.6 8
      vertex -4 4 8
      vertex -3.6 -3.6 8
    endloop
  endfacet
  facet normal -0 0 1
    outer loop
      vertex -4 4 8
      vertex -3.6 3.6 8
      vertex 4 4 8
    endloop
  endfacet
  facet normal -0 0 1
    outer loop
      vertex 3.6 -3.6 8
      vertex 4 -4 8
      vertex 3.6 3.6 8
    endloop
  endfacet
  facet normal -0 0 1
    outer loop
      vertex -3.6 -3.6 8
      vertex 4 -4 8
      vertex 3.6 -3.6 8
    endloop
  endfacet
  facet normal 0 0 1
    outer loop
      vertex -3.6 -3.6 8
      vertex -4 -4 8
      vertex 4 -4 8
    endloop
  endfacet
  facet normal 0 0 1
    outer loop
      vertex -4 -4 8
      vertex -3.6 -3.6 8
      vertex -4 4 8
    endloop
  endfacet
  facet normal -0 0 1
    outer loop
      vertex -3.6 3.6 0.200001
      vertex 3.6 -3.6 0.200001
      vertex 3.6 3.6 0.200001
    endloop
  endfacet
  facet normal 0 0 1
    outer loop
      vertex 3.6 -3.6 0.200001
      vertex -3.6 3.6 0.200001
      vertex -3.6 -3.6 0.200001
    endloop
  endfacet
  facet normal -1 0 0
    outer loop
      vertex 3.6 -3.6 0.200001
      vertex 3.6 3.6 8
      vertex 3.6 3.6 0.200001
    endloop
  endfacet
  facet normal -1 -0 0
    outer loop
      vertex 3.6 3.6 8
      vertex 3.6 -3.6 0.200001
      vertex 3.6 -3.6 8
    endloop
  endfacet
  facet normal 1 -0 0
    outer loop
      vertex -3.6 -3.6 8
      vertex -3.6 3.6 0.200001
      vertex -3.6 3.6 8
    endloop
  endfacet
  facet normal 1 0 0
    outer loop
      vertex -3.6 3.6 0.200001
      vertex -3.6 -3.6 8
      vertex -3.6 -3.6 0.200001
    endloop
  endfacet
  facet normal 0 1 -0
    outer loop
      vertex 3.6 -3.6 0.200001
      vertex -3.6 -3.6 8
      vertex 3.6 -3.6 8
    endloop
  endfacet
  facet normal 0 1 0
    outer loop
      vertex -3.6 -3.6 8
      vertex 3.6 -3.6 0.200001
      vertex -3.6 -3.6 0.200001
    endloop
  endfacet
  facet normal 0 -1 0
    outer loop
      vertex -3.6 3.6 0.200001
      vertex 3.6 3.6 8
      vertex -3.6 3.6 8
    endloop
  endfacet
  facet normal 0 -1 -0
    outer loop
      vertex 3.6 3.6 8
      vertex -3.6 3.6 0.200001
      vertex 3.6 3.6 0.200001
    endloop
  endfacet
endsolid OpenSCAD_Model
